<svg width="41" height="24" viewBox="0 0 41 24" fill="none" xmlns="http://www.w3.org/2000/svg">
    <rect x="0.59375" width="40.4062" height="24" rx="10" fill="#555555"/>
    <path
        d="M13.2451 4.1416V17H12.2695V5.49512L9.37793 6.78711V5.77637L13.0781 4.1416H13.2451ZM22.9307 4.10645H23.0537V5.04688H22.9307C22.2393 5.04688 21.6328 5.17871 21.1113 5.44238C20.5957 5.70605 20.165 6.08691 19.8193 6.58496C19.4736 7.07715 19.2129 7.67188 19.0371 8.36914C18.8613 9.06641 18.7734 9.8457 18.7734 10.707V12.4824C18.7734 13.0742 18.835 13.6016 18.958 14.0645C19.0869 14.5273 19.2686 14.9258 19.5029 15.2598C19.7373 15.5879 20.0039 15.8369 20.3027 16.0068C20.6016 16.1709 20.9209 16.2529 21.2607 16.2529C21.6123 16.2529 21.9258 16.165 22.2012 15.9893C22.4824 15.8135 22.7197 15.5703 22.9131 15.2598C23.1064 14.9492 23.2529 14.5859 23.3525 14.1699C23.458 13.7539 23.5107 13.3115 23.5107 12.8428C23.5107 12.3916 23.4639 11.9668 23.3701 11.5684C23.2764 11.1699 23.1357 10.8184 22.9482 10.5137C22.7607 10.2031 22.5234 9.95996 22.2363 9.78418C21.9492 9.6084 21.6123 9.52051 21.2256 9.52051C20.7979 9.52051 20.3906 9.64355 20.0039 9.88965C19.6172 10.1357 19.3037 10.4639 19.0635 10.874C18.8291 11.2783 18.7002 11.7236 18.6768 12.21L18.1318 12.1924C18.1787 11.6299 18.293 11.1289 18.4746 10.6895C18.6562 10.25 18.8906 9.875 19.1777 9.56445C19.4707 9.25391 19.8018 9.0166 20.1709 8.85254C20.5459 8.68262 20.9502 8.59766 21.3838 8.59766C21.9053 8.59766 22.3594 8.70898 22.7461 8.93164C23.1328 9.1543 23.4521 9.46191 23.7041 9.85449C23.9619 10.2471 24.1553 10.6953 24.2842 11.1992C24.4131 11.7031 24.4775 12.2393 24.4775 12.8076C24.4775 13.417 24.4043 13.9883 24.2578 14.5215C24.1172 15.0488 23.9062 15.5117 23.625 15.9102C23.3496 16.3086 23.0127 16.6191 22.6143 16.8418C22.2158 17.0645 21.7646 17.1758 21.2607 17.1758C20.7158 17.1758 20.2266 17.0527 19.793 16.8066C19.3652 16.5605 19.002 16.2207 18.7031 15.7871C18.4043 15.3477 18.1758 14.8438 18.0176 14.2754C17.8652 13.707 17.7891 13.1035 17.7891 12.4648V11.3486C17.7891 10.2646 17.8887 9.28027 18.0879 8.39551C18.2871 7.50488 18.5947 6.74023 19.0107 6.10156C19.4268 5.46289 19.957 4.9707 20.6016 4.625C21.252 4.2793 22.0283 4.10645 22.9307 4.10645ZM33.5039 10.4785V11.4893H26.1387V10.4785H33.5039ZM30.2871 6.40039V15.7168H29.3027V6.40039H30.2871Z"
        fill="white"/>
</svg>
