<svg width="90" height="90" viewBox="0 0 90 90" fill="none" xmlns="http://www.w3.org/2000/svg">
    <rect x="21.5312" width="71.0673" height="71.0673" rx="15" transform="rotate(17.6358 21.5312 0)" fill="#F9E6E6"/>
    <path fill-rule="evenodd" clip-rule="evenodd"
          d="M66.2561 37.1525L56.851 67.9149C56.6016 68.7307 56.0381 69.4138 55.2848 69.8144C54.5315 70.2149 53.6501 70.3001 52.8343 70.0506L28.1731 62.511C27.3573 62.2615 26.6739 61.698 26.2733 60.9447C25.8728 60.1913 25.788 59.31 26.0374 58.4942L26.5096 56.9496L48.0951 63.5489C49.3054 63.9353 50.6195 63.8267 51.7498 63.247C52.8698 62.6424 53.6972 61.6102 54.0442 60.3858L62.5244 32.6481L64.0691 33.1203C64.885 33.3627 65.5682 33.9247 65.9628 34.6787C66.3923 35.4294 66.4981 36.3226 66.2567 37.153L66.2561 37.1525Z"
          fill="#D57889"/>
    <path fill-rule="evenodd" clip-rule="evenodd"
          d="M35.9668 26.2023L31.3981 24.8054C31.5377 24.5598 31.7418 24.3574 31.9885 24.2197L38.367 20.7196C38.6703 20.5354 39.0289 20.464 39.3795 20.518L37.9667 25.1389C37.8426 25.5451 37.562 25.8856 37.1871 26.0849C36.8118 26.2842 36.373 26.3264 35.9669 26.2023L35.9668 26.2023Z"
          fill="#D57889"/>
    <path fill-rule="evenodd" clip-rule="evenodd"
          d="M60.3365 27.4082C60.1253 27.0407 59.7845 26.7643 59.3812 26.6335L42.5076 21.4748L41.0949 26.0957C40.7155 27.3248 39.8616 28.3518 38.7226 28.9492C37.5834 29.5468 36.2533 29.6655 35.0264 29.279L30.4055 27.8662L23.3497 50.9445C23.2298 51.3519 23.2685 51.7897 23.4577 52.1697C23.6745 52.5389 24.0189 52.816 24.4261 52.9483L49.0873 60.488C49.4952 60.6052 49.9318 60.5669 50.3125 60.38C50.6822 60.1709 50.9588 59.8295 51.0872 59.4247L60.4922 28.6622C60.5982 28.2395 60.5425 27.7923 60.3363 27.4081L60.3365 27.4082ZM45.4665 50.1412L33.1622 46.3794C32.7175 46.2869 32.3323 46.0116 32.101 45.6209C31.8698 45.2301 31.8136 44.7599 31.9463 44.3258C32.0792 43.8913 32.3886 43.5332 32.7988 43.3386C33.209 43.1439 33.6823 43.1311 34.1027 43.3031L46.407 47.0649C46.9089 47.27 47.2738 47.7131 47.3796 48.2448C47.4852 48.776 47.3173 49.3252 46.9326 49.7069C46.5477 50.0882 45.9974 50.2514 45.4665 50.1412L45.4665 50.1412ZM47.8198 42.4441L35.5155 38.6823C35.0708 38.5898 34.6856 38.3145 34.4543 37.9237C34.223 37.533 34.1669 37.0628 34.2996 36.6286C34.4323 36.1944 34.7418 35.8361 35.1521 35.6414C35.5623 35.4468 36.0356 35.434 36.456 35.606L48.7603 39.3678C49.262 39.5732 49.627 40.0162 49.7329 40.5476C49.8384 41.0792 49.6705 41.6284 49.2859 42.0097C48.9008 42.3914 48.3505 42.5546 47.8198 42.444L47.8198 42.4441Z"
          fill="#D57889"/>
</svg>
