<svg width="94" height="94" viewBox="0 0 94 94" fill="none" xmlns="http://www.w3.org/2000/svg">
    <rect x="28.5352" width="71.0673" height="71.0673" rx="15" transform="rotate(23.6732 28.5352 0)" fill="#EDF8F9"/>
    <path
        d="M57.7326 43.5407L62.4284 47.0013C62.4618 47.0257 62.4976 47.0465 62.5355 47.0631C62.7944 47.1763 63.0974 47.0767 63.2388 46.8318C63.3803 46.5869 63.3149 46.2749 63.0875 46.1073L58.3917 42.6467L58.3914 42.6466C58.2729 42.5589 58.1245 42.522 57.9788 42.5439C57.8327 42.5659 57.7018 42.6449 57.6143 42.7635C57.5268 42.8822 57.4901 43.0309 57.5123 43.1765C57.5344 43.3223 57.6136 43.4534 57.7326 43.5407L57.7326 43.5407Z"
        fill="#06A1AE"/>
    <path
        d="M55.975 44.959C55.7931 45.206 55.8456 45.5535 56.0925 45.7356L60.7881 49.196C60.8214 49.2207 60.8573 49.2413 60.8952 49.2579C61.1543 49.3712 61.4569 49.2717 61.5984 49.0268C61.7398 48.7819 61.6747 48.47 61.4471 48.302L56.7515 44.8416C56.5046 44.6597 56.157 44.7124 55.975 44.959L55.975 44.959Z"
        fill="#06A1AE"/>
    <path
        d="M54.3352 47.1532C54.1533 47.4001 54.206 47.7477 54.4526 47.9297L59.1485 51.3903L59.1487 51.3904C59.1819 51.4147 59.2177 51.4355 59.2556 51.4521C59.5147 51.5655 59.8176 51.4658 59.9591 51.2209C60.1002 50.9762 60.0352 50.664 59.8075 50.4963L55.1117 47.0357C54.8646 46.8543 54.5176 46.9068 54.3351 47.1532L54.3352 47.1532Z"
        fill="#06A1AE"/>
    <path
        d="M52.6956 49.3495C52.5135 49.5963 52.5663 49.9439 52.8131 50.126L57.5089 53.5866C57.5422 53.6112 57.5781 53.6318 57.6158 53.6483C57.8749 53.7617 58.1778 53.6622 58.3192 53.4173C58.4607 53.1725 58.3953 52.8604 58.168 52.6926L53.4721 49.232L53.4719 49.2319C53.2251 49.0504 52.8776 49.1029 52.6956 49.3495L52.6956 49.3495Z"
        fill="#06A1AE"/>
    <path
        d="M49.9779 56.2062L53.1251 58.5256C53.1585 58.55 53.1943 58.5708 53.2322 58.5874C53.4913 58.7007 53.794 58.601 53.9355 58.3561C54.0769 58.1114 54.0118 57.7993 53.7841 57.6316L49.1208 54.1949L49.7415 55.2145L49.7417 55.2146C49.9222 55.5122 50.0048 55.8591 49.9779 56.2061L49.9779 56.2062Z"
        fill="#06A1AE"/>
    <path
        d="M52.1441 59.8265L49.3864 57.7942L48.9293 58.8368L51.4852 60.7205C51.5183 60.7451 51.5542 60.7657 51.5921 60.7823C51.8512 60.8956 52.1541 60.7962 52.2956 60.5513C52.4368 60.3063 52.3717 59.9944 52.1441 59.8264L52.1441 59.8265Z"
        fill="#06A1AE"/>
    <path
        d="M48.8937 52.0029L54.7648 56.3295C54.7981 56.3541 54.8339 56.375 54.8716 56.3915C55.1307 56.5048 55.4336 56.4051 55.5751 56.1603C55.7166 55.9154 55.6512 55.6034 55.4238 55.4357L49.3505 50.9601L48.8937 52.0029Z"
        fill="#06A1AE"/>
    <path
        d="M54.1211 37.4568C53.7295 37.1679 53.2623 36.999 52.7765 36.9706C52.8039 37.3291 52.7433 37.689 52.6002 38.0186L52.5737 38.079C52.8923 38.0647 53.2061 38.1606 53.4621 38.3508C53.7615 38.5686 53.9606 38.8976 54.0149 39.264C54.0687 39.6167 53.9782 39.9762 53.764 40.2617C53.5778 40.5049 53.3165 40.6793 53.0203 40.7579C52.7244 40.8365 52.4109 40.8146 52.1285 40.6957L52.4993 41.0493L52.4992 41.0495C52.7374 41.2779 52.902 41.5723 52.9723 41.8946C53.6415 41.8153 54.2492 41.4655 54.6536 40.9264C55.0457 40.4044 55.2111 39.7467 55.1134 39.1012C55.0166 38.4423 54.6591 37.8496 54.1212 37.4567L54.1211 37.4568Z"
        fill="#06A1AE"/>
    <path
        d="M52.507 43.7621L52.0281 44.8545C52.1748 45.0395 52.2712 45.2593 52.3075 45.4926C52.3612 45.846 52.2707 46.2061 52.0561 46.492L50.2547 48.9033L50.2533 48.9021L49.7963 49.9451L50.0399 50.1247L50.04 50.1244C50.2858 50.3058 50.6317 50.2545 50.8145 50.0098L52.9461 47.1565L52.9458 47.1564C53.3381 46.634 53.504 45.976 53.4061 45.3301C53.3146 44.7127 52.9937 44.1528 52.507 43.7622L52.507 43.7621Z"
        fill="#06A1AE"/>
    <path
        d="M26.5166 50.9296L38.8981 62.7897C39.1609 63.0397 39.5287 63.1465 39.8846 63.0769C40.2256 63.0101 40.5148 62.7862 40.6646 62.473L51.5839 37.5732L51.5842 37.5733C51.6754 37.3646 51.7004 37.1328 51.6557 36.9095C51.6113 36.6862 51.4989 36.4819 51.3345 36.3242L40.5625 26.0063L57.0021 33.2136L56.1293 35.2044L58.7811 36.367L58.1882 37.7195L51.0738 32.4787C50.7715 32.2533 50.4016 32.1379 50.0249 32.1514C49.6479 32.1648 49.2872 32.3062 49.0015 32.5523L49.8152 33.3304L49.8154 33.3305C49.9671 33.2481 50.1484 33.2402 50.3067 33.3093C50.3448 33.3266 50.3813 33.3477 50.4155 33.3722L65.6206 44.579C65.7389 44.6642 65.8183 44.7935 65.8404 44.9376C65.8627 45.0819 65.826 45.229 65.7389 45.3462L51.3068 64.6653L47.5764 61.9176C47.4127 62.2669 47.1319 62.5481 46.7826 62.7122L50.6483 65.5588C50.7142 65.6079 50.7855 65.6495 50.861 65.6823C51.0906 65.7827 51.3473 65.8027 51.5899 65.739C51.8324 65.6754 52.0462 65.5315 52.197 65.3313L66.6292 46.0122C66.8922 45.6572 67.0032 45.2122 66.9377 44.7751C66.8724 44.3383 66.6357 43.9453 66.2802 43.6828L59.1039 38.3967L59.7983 36.8129C59.916 36.543 59.9222 36.2374 59.8152 35.9632C59.708 35.6891 59.4965 35.4684 59.2269 35.3499L57.5922 34.6333L58.0192 33.6594C58.1374 33.3897 58.1437 33.084 58.0366 32.8097C57.9296 32.5354 57.7178 32.3148 57.4478 32.1965L38.7424 23.9958C38.4727 23.8776 38.167 23.8713 37.8927 23.9783C37.6184 24.0854 37.3978 24.2972 37.2796 24.5669L37.2407 24.6833C37.2129 24.7271 37.1886 24.7733 37.1681 24.8212L26.2691 49.6813C26.1781 49.8896 26.1527 50.121 26.197 50.3441C26.2411 50.567 26.3525 50.7715 26.5163 50.9293L26.5166 50.9296Z"
        fill="#06A1AE"/>
    <path
        d="M42.4335 62.5936C42.5329 62.6372 42.6428 62.6507 42.75 62.6322C42.9336 62.5999 43.0892 62.4783 43.1649 62.308L43.8148 60.8257L45.8488 61.7174C46.1296 61.8397 46.4565 61.7121 46.5802 61.4318L48.8284 56.3038C48.9009 56.1372 48.8873 55.9459 48.7926 55.791L47.1821 53.145L51.859 42.4772C51.9521 42.2631 51.9019 42.0135 51.7329 41.8519L51.1582 41.3028L41.9967 62.1997L42.2516 62.4689C42.3036 62.522 42.3653 62.5645 42.4333 62.5941L42.4335 62.5936Z"
        fill="#06A1AE"/>
</svg>
