<svg width="15" height="16" viewBox="0 0 15 16" fill="none" xmlns="http://www.w3.org/2000/svg">
    <path
        d="M2.5 5.5H12.5M10 1.75V3M5 1.75V3M4.50012 3H10.5001C11.2002 3 11.55 3 11.8174 3.13624C12.0526 3.25608 12.244 3.44732 12.3639 3.68253C12.5001 3.94992 12.5 4.2999 12.5 4.99997V11C12.5 11.7 12.5001 12.0501 12.3639 12.3175C12.244 12.5527 12.0526 12.7439 11.8174 12.8637C11.55 13 11.2002 13 10.5001 13H4.50012C3.80006 13 3.44976 13 3.18237 12.8637C2.94717 12.7439 2.75608 12.5527 2.63624 12.3175C2.5 12.0501 2.5 11.7 2.5 11V4.99997C2.5 4.2999 2.5 3.94992 2.63624 3.68253C2.75608 3.44732 2.94717 3.25608 3.18237 3.13624C3.44976 3 3.80006 3 4.50012 3Z"
        stroke="black" stroke-opacity="0.3" stroke-width="1.5" stroke-linecap="round" stroke-linejoin="round"/>
</svg>
