<svg width="20" height="20" viewBox="0 0 20 20" fill="none" xmlns="http://www.w3.org/2000/svg">
    <path
        d="M17.5 12.3333V6V5.99727C17.5 5.06567 17.5 4.59958 17.3185 4.24341C17.1587 3.9298 16.9034 3.67482 16.5898 3.51503C16.2333 3.33337 15.7669 3.33337 14.8335 3.33337H5.16683C4.23341 3.33337 3.76635 3.33337 3.40983 3.51503C3.09623 3.67482 2.84144 3.9298 2.68166 4.24341C2.5 4.59993 2.5 5.06658 2.5 6V15.5592C2.5 16.4473 2.5 16.8913 2.68205 17.1194C2.84037 17.3178 3.08036 17.4331 3.33415 17.4329C3.62596 17.4326 3.97287 17.1551 4.66634 16.6003L5.93631 15.5844C6.20703 15.3678 6.34237 15.2595 6.4931 15.1825C6.62683 15.1142 6.76899 15.0643 6.9161 15.0341C7.0819 15 7.25544 15 7.60213 15H14.8334C15.7668 15 16.2333 15 16.5898 14.8184C16.9034 14.6586 17.1587 14.4037 17.3185 14.0901C17.5 13.7339 17.5 13.2677 17.5 12.3361V12.3333Z"
        stroke="black" stroke-opacity="0.3" stroke-width="1.5" stroke-linecap="round" stroke-linejoin="round"/>
</svg>
