<svg width="21" height="20" viewBox="0 0 21 20" fill="none" xmlns="http://www.w3.org/2000/svg">
    <path
        d="M8 5H8.28072C8.48455 5 8.58654 5 8.68244 5.02303C8.76747 5.04344 8.8491 5.07719 8.92367 5.12288C9.00774 5.1744 9.07992 5.24659 9.22396 5.39063L11.7762 7.94291C11.9204 8.08703 11.992 8.1587 12.0436 8.24279C12.0893 8.31735 12.1235 8.39886 12.1439 8.48389C12.1667 8.57881 12.1667 8.67961 12.1667 8.8793V15M8 5H4.33301C3.8663 5 3.63318 5 3.45492 5.09083C3.29811 5.17072 3.17072 5.29811 3.09083 5.45492C3 5.63318 3 5.8667 3 6.33341V16.1667C3 16.6335 3 16.8665 3.09083 17.0447C3.17072 17.2016 3.29811 17.3294 3.45492 17.4093C3.633 17.5 3.86585 17.5 4.33166 17.5L10.8342 17.5C11.3 17.5 11.5337 17.5 11.7118 17.4093C11.8686 17.3294 11.9956 17.2018 12.0755 17.0449C12.1663 16.8667 12.1667 16.6333 12.1667 16.1665V15M8 5V7.83333C8 8.30004 8 8.53324 8.09083 8.7115C8.17072 8.8683 8.29811 8.99603 8.45492 9.07593C8.633 9.16667 8.86584 9.16667 9.33164 9.16667H12.1663M8.83333 5.00008V3.83341C8.83333 3.3667 8.83333 3.13318 8.92416 2.95492C9.00406 2.79811 9.13145 2.67072 9.28825 2.59083C9.46651 2.5 9.69963 2.5 10.1663 2.5H13.8333M13.8333 2.5H14.1141C14.3179 2.5 14.4199 2.5 14.5158 2.52303C14.6008 2.54344 14.6824 2.57719 14.757 2.62288C14.8411 2.6744 14.9133 2.7466 15.0573 2.89063L17.6096 5.44291C17.7537 5.58704 17.8254 5.6587 17.8769 5.74279C17.9226 5.81735 17.9568 5.89886 17.9772 5.98389C18 6.07881 18 6.1796 18 6.3793V13.6665C18 14.1333 17.9997 14.3667 17.9089 14.545C17.829 14.7018 17.7024 14.8294 17.5456 14.9093C17.3676 15 17.1342 15 16.6684 15H12.1667M13.8333 2.5V5.33333C13.8333 5.80004 13.8333 6.03324 13.9242 6.2115C14.0041 6.3683 14.1314 6.49603 14.2882 6.57593C14.4663 6.66667 14.6992 6.66667 15.165 6.66667H17.9997"
        stroke="#00A2B0" stroke-width="1.5" stroke-linecap="round" stroke-linejoin="round"/>
</svg>
