<svg width="15" height="16" viewBox="0 0 15 16" fill="none" xmlns="http://www.w3.org/2000/svg">
    <path
        d="M5.625 11.125H9.375M5.625 9.25H9.375M8.12524 2.37554C8.06553 2.375 7.99836 2.375 7.9217 2.375H5.12512C4.42506 2.375 4.07476 2.375 3.80737 2.51124C3.57217 2.63108 3.38108 2.82217 3.26124 3.05737C3.125 3.32476 3.125 3.67506 3.125 4.37512V11.6251C3.125 12.3252 3.125 12.675 3.26124 12.9424C3.38108 13.1776 3.57217 13.369 3.80737 13.4889C4.0745 13.625 4.42438 13.625 5.12309 13.625L9.87693 13.625C10.5756 13.625 10.925 13.625 11.1921 13.4889C11.4273 13.369 11.619 13.1776 11.7389 12.9424C11.875 12.6753 11.875 12.3259 11.875 11.6272V6.32855C11.875 6.25189 11.8749 6.18471 11.8744 6.125M8.12524 2.37554C8.30365 2.37717 8.41608 2.38379 8.52386 2.40967C8.65141 2.44029 8.77366 2.49079 8.8855 2.55933C9.0116 2.6366 9.11988 2.74488 9.33594 2.96094L11.2894 4.91436C11.5056 5.13055 11.613 5.23835 11.6903 5.3645C11.7589 5.47634 11.8096 5.59828 11.8402 5.72583C11.8661 5.83362 11.8728 5.94659 11.8744 6.125M8.12524 2.37554L8.125 4.12513C8.125 4.8252 8.125 5.17509 8.26124 5.44248C8.38108 5.67769 8.57217 5.86905 8.80737 5.98889C9.0745 6.125 9.42438 6.125 10.1231 6.125H11.8744"
        stroke="black" stroke-opacity="0.3" stroke-width="1.5" stroke-linecap="round" stroke-linejoin="round"/>
</svg>
