<svg width="20" height="20" viewBox="0 0 20 20" fill="none" xmlns="http://www.w3.org/2000/svg">
    <path
        d="M7.50004 5L10 2.5M10 2.5L12.5 5M10 2.5V10.8333M5.83357 8.33333C5.057 8.33333 4.66871 8.33333 4.36243 8.4602C3.95405 8.62936 3.6294 8.9538 3.46024 9.36218C3.33337 9.66847 3.33337 10.0568 3.33337 10.8333V14.8333C3.33337 15.7668 3.33337 16.2335 3.51503 16.59C3.67482 16.9036 3.9296 17.1585 4.2432 17.3183C4.59972 17.5 5.06678 17.5 6.0002 17.5H14.0002C14.9336 17.5 15.4 17.5 15.7565 17.3183C16.0701 17.1585 16.3254 16.9036 16.4852 16.59C16.6669 16.2335 16.6667 15.7668 16.6667 14.8333V10.8333C16.6667 10.0568 16.6666 9.66847 16.5398 9.36218C16.3706 8.9538 16.0462 8.62936 15.6378 8.4602C15.3316 8.33333 14.9433 8.33333 14.1667 8.33333"
        stroke="black" stroke-opacity="0.3" stroke-width="1.5" stroke-linecap="round" stroke-linejoin="round"/>
</svg>
