<svg width="15" height="16" viewBox="0 0 15 16" fill="none" xmlns="http://www.w3.org/2000/svg">
    <path
        d="M7.5 8V11.75M7.5 11.75L9.375 10.5M7.5 11.75L5.625 10.5M8.125 2.37554C8.06532 2.375 7.9983 2.375 7.9217 2.375H5.12512C4.42506 2.375 4.07476 2.375 3.80737 2.51124C3.57217 2.63108 3.38108 2.82217 3.26124 3.05737C3.125 3.32476 3.125 3.67506 3.125 4.37512V11.6251C3.125 12.3252 3.125 12.675 3.26124 12.9424C3.38108 13.1776 3.57217 13.3691 3.80737 13.4889C4.0745 13.625 4.42437 13.625 5.12307 13.625H9.87693C10.5756 13.625 10.925 13.625 11.1921 13.4889C11.4273 13.369 11.619 13.1776 11.7389 12.9424C11.875 12.6753 11.875 12.3259 11.875 11.6272V6.32855C11.875 6.25185 11.875 6.18475 11.8744 6.125M8.125 2.37554C8.30352 2.37717 8.41646 2.38365 8.52428 2.40954C8.65182 2.44016 8.77366 2.49079 8.8855 2.55933C9.0116 2.6366 9.11989 2.74489 9.33594 2.96094L11.2894 4.91436C11.5056 5.13055 11.613 5.23835 11.6903 5.3645C11.7589 5.47634 11.8096 5.59828 11.8402 5.72583C11.8661 5.8336 11.8727 5.94657 11.8744 6.125M8.125 2.37554V4.125C8.125 4.82507 8.125 5.17485 8.26124 5.44224C8.38108 5.67745 8.57217 5.86905 8.80737 5.98889C9.0745 6.125 9.42437 6.125 10.1231 6.125H11.8744M11.8744 6.125H11.8751"
        stroke="#00A2B0" stroke-linecap="round" stroke-linejoin="round"/>
</svg>
