<svg width="15" height="15" viewBox="0 0 15 15" fill="none" xmlns="http://www.w3.org/2000/svg">
    <path
        d="M7.5 7.5V11.25M7.5 11.25L9.375 10M7.5 11.25L5.625 10M8.125 1.87554C8.06532 1.875 7.9983 1.875 7.9217 1.875H5.12512C4.42506 1.875 4.07476 1.875 3.80737 2.01124C3.57217 2.13108 3.38108 2.32217 3.26124 2.55737C3.125 2.82476 3.125 3.17506 3.125 3.87512V11.1251C3.125 11.8252 3.125 12.175 3.26124 12.4424C3.38108 12.6776 3.57217 12.8691 3.80737 12.9889C4.0745 13.125 4.42437 13.125 5.12307 13.125H9.87693C10.5756 13.125 10.925 13.125 11.1921 12.9889C11.4273 12.869 11.619 12.6776 11.7389 12.4424C11.875 12.1753 11.875 11.8259 11.875 11.1272V5.82855C11.875 5.75185 11.875 5.68475 11.8744 5.625M8.125 1.87554C8.30352 1.87717 8.41646 1.88365 8.52428 1.90954C8.65182 1.94016 8.77366 1.99079 8.8855 2.05933C9.0116 2.1366 9.11989 2.24489 9.33594 2.46094L11.2894 4.41436C11.5056 4.63055 11.613 4.73835 11.6903 4.8645C11.7589 4.97634 11.8096 5.09828 11.8402 5.22583C11.8661 5.3336 11.8727 5.44657 11.8744 5.625M8.125 1.87554V3.625C8.125 4.32507 8.125 4.67485 8.26124 4.94224C8.38108 5.17745 8.57217 5.36905 8.80737 5.48889C9.0745 5.625 9.42437 5.625 10.1231 5.625H11.8744M11.8744 5.625H11.8751"
        stroke="#00A2B0" stroke-linecap="round" stroke-linejoin="round"/>
</svg>
