<svg width="20" height="20" viewBox="0 0 20 20" fill="none" xmlns="http://www.w3.org/2000/svg">
    <path
        d="M7.49996 12.5H12.5M15.8335 7.5H13.5001C12.5667 7.5 12.0996 7.49997 11.7431 7.31832C11.4295 7.15853 11.1747 6.90358 11.0149 6.58997C10.8333 6.23345 10.8333 5.76675 10.8333 4.83333V2.5M15.8333 14.8333V7.77125C15.8333 7.3636 15.833 7.15974 15.7869 6.96793C15.7461 6.79787 15.6789 6.63531 15.5875 6.48619C15.4844 6.318 15.3407 6.17387 15.0524 5.88562L12.4479 3.28105C12.1596 2.9928 12.0155 2.84869 11.8473 2.74562C11.6982 2.65423 11.5356 2.58688 11.3656 2.54605C11.1738 2.5 10.9699 2.5 10.5622 2.5H6.83346C5.90003 2.5 5.43298 2.5 5.07646 2.68166C4.76285 2.84144 4.50807 3.09643 4.34828 3.41003C4.16663 3.76655 4.16663 4.23326 4.16663 5.16668V14.8333C4.16663 15.7668 4.16663 16.2335 4.34828 16.59C4.50807 16.9036 4.76285 17.1585 5.07646 17.3183C5.43298 17.5 5.90003 17.5 6.83346 17.5H13.1668C14.1002 17.5 14.5666 17.5 14.9231 17.3183C15.2367 17.1585 15.492 16.9036 15.6518 16.59C15.8335 16.2335 15.8333 15.7668 15.8333 14.8333Z"
        stroke="black" stroke-opacity="0.3" stroke-width="1.5" stroke-linecap="round" stroke-linejoin="round"/>
</svg>
