<svg width="20" height="20" viewBox="0 0 20 20" fill="none" xmlns="http://www.w3.org/2000/svg">
    <path
        d="M10 8.33325L10 13.3333M10 13.3333L12.5 11.6666M10 13.3333L7.5 11.6666M2.5 4.99992V13.9999C2.5 14.9333 2.5 15.4 2.68166 15.7566C2.84144 16.0702 3.09623 16.3251 3.40983 16.4849C3.76635 16.6666 4.23341 16.6666 5.16683 16.6666H14.8335C15.7669 16.6666 16.2333 16.6666 16.5898 16.4849C16.9034 16.3251 17.1587 16.0702 17.3185 15.7566C17.5002 15.4 17.5002 14.9333 17.5002 13.9999L17.5002 7.6666C17.5002 6.73318 17.5002 6.26647 17.3185 5.90995C17.1587 5.59635 16.9034 5.34136 16.5898 5.18157C16.2333 4.99992 15.7668 4.99992 14.8333 4.99992H2.5ZM2.5 4.99992C2.5 4.07944 3.24619 3.33325 4.16667 3.33325H7.22876C7.63641 3.33325 7.84048 3.33325 8.03229 3.3793C8.20235 3.42013 8.36488 3.48749 8.514 3.57887C8.68219 3.68194 8.82633 3.82605 9.11458 4.1143L10.0002 4.99992"
        stroke="#00A2B0" stroke-width="1.5" stroke-linecap="round" stroke-linejoin="round"/>
</svg>
