<svg width="20" height="21" viewBox="0 0 20 21" fill="none" xmlns="http://www.w3.org/2000/svg">
    <path
        d="M3.33324 3.93311L16.6666 17.2664M13.7499 14.563C12.6227 15.1702 11.3488 15.5997 9.99991 15.5997C7.0577 15.5997 4.47187 13.5563 2.989 12.0821C2.59759 11.693 2.40191 11.4984 2.27733 11.1165C2.18849 10.8442 2.18847 10.3552 2.27733 10.0829C2.40194 9.701 2.59803 9.50598 2.99022 9.11616C3.73763 8.37328 4.76501 7.4861 5.97683 6.78874M16.2499 12.7943C16.5275 12.5502 16.7816 12.3101 17.0097 12.0833L17.0121 12.0808C17.4027 11.6926 17.5985 11.498 17.7228 11.1169C17.8117 10.8446 17.8115 10.3555 17.7227 10.0831C17.5981 9.70133 17.4022 9.50623 17.0111 9.11736C15.5282 7.64318 12.9421 5.59977 9.99991 5.59977C9.71866 5.59977 9.44066 5.61844 9.16658 5.65351M11.1023 11.8498C10.8085 12.1091 10.4226 12.2664 9.99991 12.2664C9.07944 12.2664 8.33324 11.5202 8.33324 10.5998C8.33324 10.1502 8.51126 9.74234 8.80064 9.44255"
        stroke="black" stroke-opacity="0.3" stroke-width="1.5" stroke-linecap="round" stroke-linejoin="round"/>
</svg>
