<svg width="18" height="18" viewBox="0 0 18 18" fill="none" xmlns="http://www.w3.org/2000/svg">
    <path
        d="M6.477 2.5H4.677C3.5569 2.5 2.99643 2.5 2.5686 2.71799C2.19228 2.90973 1.88654 3.21547 1.69479 3.5918C1.47681 4.01962 1.47681 4.58009 1.47681 5.7002V13.3002C1.47681 14.4203 1.47681 14.9801 1.69479 15.4079C1.88654 15.7842 2.19228 16.0905 2.5686 16.2822C2.99601 16.5 3.5558 16.5 4.67372 16.5H12.2799C13.3978 16.5 13.9568 16.5 14.3842 16.2822C14.7605 16.0905 15.0673 15.7839 15.259 15.4076C15.4768 14.9802 15.4768 14.421 15.4768 13.3031V11.5M16.4768 6.5V1.5M16.4768 1.5H11.4768M16.4768 1.5L9.47681 8.5"
        stroke="black" stroke-opacity="0.5" stroke-width="2" stroke-linecap="round" stroke-linejoin="round"/>
</svg>
