<svg width="20" height="20" viewBox="0 0 20 20" fill="none" xmlns="http://www.w3.org/2000/svg">
    <path
        d="M8.33346 4.91659C8.74767 4.91659 9.08346 4.5808 9.08346 4.16659C9.08346 3.75237 8.74767 3.41659 8.33346 3.41659V4.91659ZM16.5833 11.6666C16.5833 11.2524 16.2475 10.9166 15.8333 10.9166C15.4191 10.9166 15.0833 11.2524 15.0833 11.6666H16.5833ZM14.9231 15.6516L14.5826 14.9833L14.9231 15.6516ZM15.6518 14.9233L14.9836 14.5828L15.6518 14.9233ZM4.34828 14.9233L3.68003 15.2638L4.34828 14.9233ZM5.07646 15.6516L5.41695 14.9833H5.41695L5.07646 15.6516ZM5.07646 4.34824L5.41695 5.0165L5.07646 4.34824ZM4.34828 5.07662L5.01654 5.41711L4.34828 5.07662ZM15.9166 7.49992C15.9166 7.91413 16.2524 8.24992 16.6666 8.24992C17.0808 8.24992 17.4166 7.91413 17.4166 7.49992H15.9166ZM16.6666 3.33325H17.4166C17.4166 2.91904 17.0808 2.58325 16.6666 2.58325V3.33325ZM12.5 2.58325C12.0857 2.58325 11.75 2.91904 11.75 3.33325C11.75 3.74747 12.0857 4.08325 12.5 4.08325V2.58325ZM10.303 8.63626C10.0101 8.92915 10.0101 9.40402 10.303 9.69692C10.5959 9.98981 11.0707 9.98981 11.3636 9.69692L10.303 8.63626ZM8.33346 3.41659H6.83346V4.91659H8.33346V3.41659ZM3.41663 6.83321V13.1665H4.91663V6.83321H3.41663ZM6.83346 16.5833H13.1668V15.0833H6.83346V16.5833ZM16.5833 13.1666V11.6666H15.0833V13.1666H16.5833ZM13.1668 16.5833C13.6211 16.5833 14.0069 16.5838 14.3224 16.558C14.6467 16.5315 14.962 16.4735 15.2636 16.3198L14.5826 14.9833C14.5277 15.0113 14.4316 15.0441 14.2002 15.063C13.96 15.0827 13.6459 15.0833 13.1668 15.0833V16.5833ZM15.0833 13.1666C15.0833 13.6457 15.0828 13.96 15.0632 14.2003C15.0443 14.4319 15.0115 14.528 14.9836 14.5828L16.3201 15.2638C16.4738 14.9621 16.5318 14.6465 16.5582 14.3222C16.5839 14.0067 16.5833 13.6208 16.5833 13.1666H15.0833ZM15.2636 16.3198C15.7179 16.0883 16.0882 15.7189 16.3201 15.2638L14.9836 14.5828C14.8959 14.7549 14.7555 14.8952 14.5826 14.9833L15.2636 16.3198ZM3.41663 13.1665C3.41663 13.6209 3.41604 14.0068 3.44182 14.3223C3.46832 14.6466 3.52634 14.9621 3.68003 15.2638L5.01654 14.5828C4.98856 14.5279 4.95576 14.4318 4.93684 14.2002C4.91721 13.9599 4.91663 13.6456 4.91663 13.1665H3.41663ZM6.83346 15.0833C6.35439 15.0833 6.04008 15.0827 5.79969 15.063C5.56801 15.0441 5.47183 15.0113 5.41695 14.9833L4.73596 16.3198C5.03761 16.4735 5.35321 16.5315 5.67755 16.558C5.99317 16.5838 6.3791 16.5833 6.83346 16.5833V15.0833ZM3.68003 15.2638C3.91166 15.7184 4.28113 16.0881 4.73596 16.3198L5.41695 14.9833C5.24458 14.8955 5.10448 14.7554 5.01654 14.5828L3.68003 15.2638ZM6.83346 3.41659C6.37911 3.41659 5.99318 3.416 5.67756 3.44178C5.35324 3.46827 5.03762 3.52629 4.73596 3.67999L5.41695 5.0165C5.47181 4.98854 5.56799 4.95573 5.79967 4.9368C6.04007 4.91717 6.35438 4.91659 6.83346 4.91659V3.41659ZM4.91663 6.83321C4.91663 6.35412 4.91721 6.03993 4.93684 5.79965C4.95576 5.56814 4.98856 5.47203 5.01654 5.41711L3.68003 4.73613C3.52635 5.03773 3.46832 5.3532 3.44182 5.6775C3.41604 5.99303 3.41663 6.37888 3.41663 6.83321H4.91663ZM4.73596 3.67999C4.28104 3.91178 3.91162 4.2816 3.68003 4.73613L5.01654 5.41711C5.10452 5.24444 5.24466 5.10428 5.41695 5.0165L4.73596 3.67999ZM17.4166 7.49992V3.33325H15.9166V7.49992H17.4166ZM16.6666 2.58325H12.5V4.08325H16.6666V2.58325ZM11.3636 9.69692L17.197 3.86358L16.1363 2.80292L10.303 8.63626L11.3636 9.69692Z"
        fill="black" fill-opacity="0.3"/>
</svg>
