<svg width="20" height="20" viewBox="0 0 20 20" fill="none" xmlns="http://www.w3.org/2000/svg">
    <path
        d="M7.6921 7.5H6.0002C5.06678 7.5 4.59972 7.5 4.2432 7.68166C3.9296 7.84144 3.67482 8.09623 3.51503 8.40983C3.33337 8.76635 3.33337 9.23341 3.33337 10.1668V14.8335C3.33337 15.7669 3.33337 16.2334 3.51503 16.5899C3.67482 16.9035 3.9296 17.1587 4.2432 17.3185C4.59938 17.5 5.06589 17.5 5.99749 17.5H14.0026C14.9342 17.5 15.4 17.5 15.7562 17.3185C16.0698 17.1587 16.3254 16.9035 16.4852 16.5899C16.6667 16.2337 16.6667 15.7679 16.6667 14.8363V10.1641C16.6667 9.23249 16.6667 8.766 16.4852 8.40983C16.3254 8.09623 16.0698 7.84144 15.7562 7.68166C15.3997 7.5 14.9336 7.5 14.0002 7.5H12.3075M7.6921 7.5H12.3075M7.6921 7.5C7.58589 7.5 7.50004 7.4139 7.50004 7.30769V5C7.50004 3.61929 8.61933 2.5 10 2.5C11.3808 2.5 12.5 3.61929 12.5 5V7.30769C12.5 7.4139 12.4137 7.5 12.3075 7.5"
        stroke="black" stroke-opacity="0.3" stroke-width="1.5" stroke-linecap="round" stroke-linejoin="round"/>
</svg>
