<svg width="15" height="16" viewBox="0 0 15 16" fill="none" xmlns="http://www.w3.org/2000/svg">
    <path
        d="M5.625 6.125H4.50012C3.80006 6.125 3.44976 6.125 3.18237 6.26124C2.94717 6.38108 2.75608 6.57217 2.63624 6.80737C2.5 7.07476 2.5 7.42506 2.5 8.12512V11.6251C2.5 12.3252 2.5 12.675 2.63624 12.9424C2.75608 13.1776 2.94717 13.3691 3.18237 13.4889C3.4495 13.625 3.79938 13.625 4.49809 13.625L10.5019 13.625C11.2006 13.625 11.55 13.625 11.8171 13.4889C12.0523 13.3691 12.244 13.1776 12.3639 12.9424C12.5 12.6753 12.5 12.3259 12.5 11.6272V8.12307C12.5 7.42437 12.5 7.0745 12.3639 6.80737C12.244 6.57217 12.0523 6.38108 11.8171 6.26124C11.5497 6.125 11.2002 6.125 10.5001 6.125H5.625ZM5.625 6.125V4.32507C5.625 3.24812 6.43751 2.375 7.4398 2.375C7.95479 2.375 8.41924 2.60549 8.74955 2.97571"
        stroke="black" stroke-opacity="0.3" stroke-width="1.5" stroke-linecap="round" stroke-linejoin="round"/>
</svg>
