<svg width="15" height="15" viewBox="0 0 15 15" fill="none" xmlns="http://www.w3.org/2000/svg">
    <path
        d="M5.625 5.625H4.50012C3.80006 5.625 3.44976 5.625 3.18237 5.76124C2.94717 5.88108 2.75608 6.07217 2.63624 6.30737C2.5 6.57476 2.5 6.92506 2.5 7.62512V11.1251C2.5 11.8252 2.5 12.175 2.63624 12.4424C2.75608 12.6776 2.94717 12.8691 3.18237 12.9889C3.4495 13.125 3.79938 13.125 4.49809 13.125L10.5019 13.125C11.2006 13.125 11.55 13.125 11.8171 12.9889C12.0523 12.8691 12.244 12.6776 12.3639 12.4424C12.5 12.1753 12.5 11.8259 12.5 11.1272V7.62307C12.5 6.92437 12.5 6.5745 12.3639 6.30737C12.244 6.07217 12.0523 5.88108 11.8171 5.76124C11.5497 5.625 11.2002 5.625 10.5001 5.625H5.625ZM5.625 5.625V3.82507C5.625 2.74812 6.43751 1.875 7.4398 1.875C7.95479 1.875 8.41924 2.10549 8.74955 2.47571"
        stroke="#78C2C9" stroke-width="1.5" stroke-linecap="round" stroke-linejoin="round"/>
</svg>
