<svg width="101" height="40" viewBox="0 0 101 40" fill="none" xmlns="http://www.w3.org/2000/svg">
    <path d="M5.89502 33.3245H0L5.89502 36.1374V33.3245Z" fill="#262821"/>
    <path
        d="M0 33.3242V39.9999L2.94751 38.331L5.89502 39.9999V33.3242H25.7806C27.5841 33.3242 29.0444 31.6419 29.0444 29.5692V6.35922C29.0444 6.24482 28.9098 6.18425 28.8291 6.26501L0 33.3242Z"
        fill="#06A1AE"/>
    <path
        d="M4.53566 25.1953L18.4859 0.00683594H4.48856C2.01211 0.00683594 0 2.31505 0 5.16834V20.0068V33.3245V33.3918L0.0403752 33.3245H5.89502L4.53566 25.1953Z"
        fill="#06A1AE"/>
    <path
        d="M29.0443 3.11575V5.85464C29.0443 6.02961 28.977 6.19112 28.8626 6.29879L2.41578 31.1238C1.97163 31.541 1.36598 30.9219 1.67554 30.3634L18.3377 0.269179C18.4319 0.100942 18.5867 0 18.7617 0H26.3323C27.833 0.00672947 29.0443 1.39973 29.0443 3.11575Z"
        fill="#F6F6F6"/>
    <path d="M5.89502 33.3245H0L5.89502 36.1374V33.3245Z" fill="#008695"/>
    <path
        d="M43.6406 4.97971V2.83301H48.0821C48.5801 2.83301 49.105 2.84647 49.6702 2.88011C50.2355 2.91376 50.7537 3.0147 51.2315 3.1964C51.7093 3.37809 52.0996 3.64727 52.4091 4.0174C52.7187 4.38752 52.8802 4.91241 52.8802 5.59209V6.5746C52.8802 6.93799 52.786 7.25427 52.6043 7.50999C52.4226 7.76571 52.1803 7.99452 51.8775 8.18967C52.3284 8.4252 52.685 8.74149 52.9542 9.12507C53.2167 9.51538 53.3513 9.9999 53.3513 10.5786V11.7428C53.3513 12.3148 53.1898 12.7657 52.86 13.1022C52.5303 13.4387 52.1198 13.6944 51.6352 13.8693C51.144 14.0443 50.6191 14.1654 50.0538 14.2193C49.4885 14.2731 48.9704 14.3 48.4926 14.3H44.3741V4.97971H43.6406ZM49.825 6.14391C49.825 5.64593 49.7173 5.32964 49.502 5.18159C49.2867 5.03355 48.9502 4.96625 48.4993 4.96625H47.463V7.29465H48.3513C48.5262 7.29465 48.6945 7.28119 48.8694 7.261C49.0444 7.24081 49.1992 7.18698 49.3405 7.10623C49.4818 7.02547 49.5962 6.91107 49.6904 6.75629C49.7846 6.60824 49.825 6.39963 49.825 6.14391ZM50.2624 10.794C50.2624 10.6661 50.2422 10.5113 50.2086 10.3364C50.1682 10.1614 50.0942 9.99317 49.9798 9.83839C49.8654 9.68361 49.7039 9.54902 49.4885 9.44135C49.2732 9.33368 48.9906 9.27985 48.6339 9.27985H47.4697V12.1533H48.5666C48.7416 12.1533 48.9233 12.1466 49.1252 12.1264C49.327 12.113 49.5087 12.0591 49.6837 11.9716C49.8587 11.8842 49.9933 11.7496 50.1009 11.5679C50.2086 11.3862 50.2624 11.1305 50.2624 10.794Z"
        fill="#2C3E50"/>
    <path
        d="M65.1549 2.83301V4.97971H65.0876C64.9598 4.9999 64.7915 5.047 64.5762 5.10757C64.3675 5.17486 64.1455 5.30945 63.9234 5.51134L63.7956 5.65939L60.8413 8.51941L64.0849 11.44C64.5021 11.8169 64.8319 12.0793 65.0674 12.2206C65.303 12.3619 65.4846 12.4494 65.6192 12.4696L64.8117 14.2462L64.6031 14.3404C64.4214 14.3942 64.233 14.4212 64.0378 14.4212C63.7552 14.4346 63.4322 14.3673 63.0688 14.2193C62.7054 14.0712 62.2814 13.7819 61.8103 13.3377L58.7888 10.4979L58.5129 10.7738V14.2933H55.4106V4.97971H54.6838V2.83301H58.4927V6.78994L62.5439 2.83301H65.1549Z"
        fill="#2C3E50"/>
    <path
        d="M66.4333 4.97971V2.83301H71.2315C71.7294 2.83301 72.2543 2.86665 72.8196 2.92722C73.3849 2.99451 73.9031 3.13583 74.3809 3.35791C74.8587 3.57998 75.249 3.88954 75.5585 4.2933C75.8681 4.69707 76.0296 5.23543 76.0296 5.91511V6.89761C76.0296 7.50326 75.8815 7.99452 75.5787 8.3781C75.2759 8.76168 74.899 9.05777 74.4414 9.27311C73.9838 9.48846 73.4858 9.63651 72.9475 9.71053C72.4091 9.78456 71.9044 9.82493 71.4266 9.82493H70.2624V14.3H67.1601V4.97971H66.4333ZM72.9744 6.45346C72.9744 5.95548 72.8398 5.59209 72.5706 5.34983C72.3014 5.10757 71.9381 4.98644 71.4872 4.98644H70.2624V7.85993H71.4401C71.615 7.85993 71.79 7.83301 71.9717 7.7859C72.1534 7.73879 72.3216 7.65804 72.463 7.54364C72.6043 7.42924 72.7321 7.28792 72.8264 7.10623C72.9206 6.92453 72.9744 6.70918 72.9744 6.45346Z"
        fill="#2C3E50"/>
    <path
        d="M50.3769 22.2812L50.2962 21.6689C50.175 21.5074 50.0001 21.3593 49.7713 21.2247C49.5425 21.0901 49.1925 21.0228 48.7282 21.0228C48.385 21.0228 48.1024 21.0901 47.8803 21.218C47.6582 21.3458 47.49 21.541 47.3621 21.7967C47.241 22.0524 47.1535 22.3822 47.1064 22.7725C47.0593 23.1628 47.0324 23.6271 47.0324 24.152V25.3768C47.0324 25.9488 47.0593 26.4266 47.1131 26.8169C47.167 27.2072 47.2612 27.5168 47.4025 27.7523C47.5438 27.9878 47.7322 28.1561 47.9678 28.2637C48.2033 28.3647 48.5129 28.4185 48.8897 28.4185C49.2531 28.4185 49.5627 28.4051 49.8184 28.3781C50.0741 28.3512 50.3029 28.3109 50.5182 28.2637C50.7336 28.2166 50.9422 28.1561 51.1374 28.0888C51.3392 28.0215 51.568 27.9407 51.8238 27.8533L52.564 29.6433C51.9853 29.9125 51.3931 30.1413 50.7874 30.3364C50.1818 30.5316 49.5425 30.6258 48.8628 30.6258C48.2168 30.6258 47.5842 30.5787 46.9718 30.4777C46.3594 30.3835 45.8143 30.1682 45.3298 29.8317C44.8453 29.4952 44.4685 29.0175 44.1858 28.3916C43.9032 27.7658 43.7551 26.9246 43.7551 25.8546V23.2368C43.7551 22.5706 43.8291 21.9986 43.9705 21.5141C44.1118 21.0296 44.3137 20.6325 44.5627 20.3028C44.8117 19.973 45.0943 19.7106 45.4173 19.5087C45.7403 19.3068 46.0835 19.1588 46.4402 19.0578C46.8036 18.9569 47.1602 18.8896 47.5236 18.8559C47.887 18.8223 48.2302 18.8088 48.5667 18.8088C49.28 18.8088 49.9664 18.8559 50.6394 18.9434C51.3123 19.0376 51.8843 19.1588 52.3621 19.3068L52.1535 22.2611H50.3769V22.2812Z"
        fill="#2C3E50"/>
    <path
        d="M54.4279 30.4507V21.1169H53.7146V18.9702H58.4118L60.4979 26.0631L62.8061 18.9702H67.3956V21.1169H66.6823V30.4507H63.7617V24.4615L61.8371 29.4817H59.2059L57.3485 24.4413V30.4507H54.4279Z"
        fill="#2C3E50"/>
    <path
        d="M68.1763 30.4507V28.304H68.9165L71.9179 18.9836H75.2961L78.2032 28.304H78.9434V30.4507H75.8277L75.1009 28.304H71.9852L71.2786 30.4507H68.1763ZM72.6648 26.0765H74.5087L73.6541 22.9137L72.6648 26.0765Z"
        fill="#2C3E50"/>
    <path
        d="M79.8855 21.1303V18.9836H84.6836C85.1816 18.9836 85.7065 19.0173 86.2718 19.0779C86.837 19.1451 87.3552 19.2865 87.833 19.5085C88.3108 19.7306 88.7011 20.0402 89.0107 20.4439C89.3202 20.8477 89.4817 21.3861 89.4817 22.0657V23.0482C89.4817 23.6539 89.3337 24.1452 89.0309 24.5287C88.728 24.9123 88.3512 25.2084 87.8936 25.4237C87.436 25.6391 86.938 25.7871 86.3996 25.8612C85.8613 25.9352 85.3566 25.9756 84.8788 25.9756H83.7146V30.4507H80.6123V21.1303H79.8855ZM86.4265 22.6041C86.4265 22.1061 86.292 21.7427 86.0228 21.5005C85.7536 21.2582 85.3902 21.1371 84.9393 21.1371H83.7146V24.0106H84.8922C85.0672 24.0106 85.2422 23.9836 85.4239 23.9365C85.6056 23.8894 85.7738 23.8087 85.9151 23.6943C86.0564 23.5799 86.1843 23.4386 86.2785 23.2569C86.3727 23.0752 86.4265 22.8598 86.4265 22.6041Z"
        fill="#2C3E50"/>
    <path
        d="M92.2072 21.8235H90.3835V18.9836H100.444V21.8235H98.6204V21.5341C98.6204 21.413 98.6002 21.3255 98.5666 21.2649C98.5262 21.2044 98.4724 21.1573 98.3984 21.1303H96.8775V28.304H97.5908V30.4507H93.2301V28.304H93.9569V21.1303H92.4226C92.2813 21.1707 92.214 21.3053 92.214 21.5341V21.8235H92.2072Z"
        fill="#2C3E50"/>
</svg>
