<svg width="16" height="16" viewBox="0 0 16 16" fill="none" xmlns="http://www.w3.org/2000/svg">
    <path
        d="M13 14C13 14.5523 13.4477 15 14 15C14.5523 15 15 14.5523 15 14C15 13.4477 14.5523 13 14 13C13.4477 13 13 13.4477 13 14Z"
        stroke="black" stroke-opacity="0.5" stroke-width="2" stroke-linecap="round" stroke-linejoin="round"/>
    <path
        d="M7 14C7 14.5523 7.44772 15 8 15C8.55228 15 9 14.5523 9 14C9 13.4477 8.55228 13 8 13C7.44772 13 7 13.4477 7 14Z"
        stroke="black" stroke-opacity="0.5" stroke-width="2" stroke-linecap="round" stroke-linejoin="round"/>
    <path
        d="M1 14C1 14.5523 1.44772 15 2 15C2.55228 15 3 14.5523 3 14C3 13.4477 2.55228 13 2 13C1.44772 13 1 13.4477 1 14Z"
        stroke="black" stroke-opacity="0.5" stroke-width="2" stroke-linecap="round" stroke-linejoin="round"/>
    <path
        d="M13 8C13 8.55228 13.4477 9 14 9C14.5523 9 15 8.55228 15 8C15 7.44772 14.5523 7 14 7C13.4477 7 13 7.44772 13 8Z"
        stroke="black" stroke-opacity="0.5" stroke-width="2" stroke-linecap="round" stroke-linejoin="round"/>
    <path d="M7 8C7 8.55228 7.44772 9 8 9C8.55228 9 9 8.55228 9 8C9 7.44772 8.55228 7 8 7C7.44772 7 7 7.44772 7 8Z"
          stroke="black" stroke-opacity="0.5" stroke-width="2" stroke-linecap="round" stroke-linejoin="round"/>
    <path d="M1 8C1 8.55228 1.44772 9 2 9C2.55228 9 3 8.55228 3 8C3 7.44772 2.55228 7 2 7C1.44772 7 1 7.44772 1 8Z"
          stroke="black" stroke-opacity="0.5" stroke-width="2" stroke-linecap="round" stroke-linejoin="round"/>
    <path
        d="M13 2C13 2.55228 13.4477 3 14 3C14.5523 3 15 2.55228 15 2C15 1.44772 14.5523 1 14 1C13.4477 1 13 1.44772 13 2Z"
        stroke="black" stroke-opacity="0.5" stroke-width="2" stroke-linecap="round" stroke-linejoin="round"/>
    <path d="M7 2C7 2.55228 7.44772 3 8 3C8.55228 3 9 2.55228 9 2C9 1.44772 8.55228 1 8 1C7.44772 1 7 1.44772 7 2Z"
          stroke="black" stroke-opacity="0.5" stroke-width="2" stroke-linecap="round" stroke-linejoin="round"/>
    <path d="M1 2C1 2.55228 1.44772 3 2 3C2.55228 3 3 2.55228 3 2C3 1.44772 2.55228 1 2 1C1.44772 1 1 1.44772 1 2Z"
          stroke="black" stroke-opacity="0.5" stroke-width="2" stroke-linecap="round" stroke-linejoin="round"/>
</svg>
