<svg width="17" height="17" viewBox="0 0 17 17" fill="none" xmlns="http://www.w3.org/2000/svg">
    <mask id="path-1-outside-1_542_41530" maskUnits="userSpaceOnUse" x="0" y="0" width="17" height="17" fill="black">
        <rect fill="white" width="17" height="17"/>
        <path
            d="M15.8282 5.3083L11.6915 1.17164C11.5499 1.02999 11.3485 0.97097 11.1536 1.01358C10.9579 1.05604 10.7994 1.19352 10.7295 1.38167C10.4934 2.01737 10.4358 2.72906 10.5623 3.40898L6.53547 6.95674C4.35281 6.18067 2.63427 7.3801 2.55982 7.43339C2.41975 7.53358 2.33151 7.68948 2.3174 7.86036C2.30287 8.03224 2.36462 8.20081 2.4867 8.32274L5.32548 11.1615L1.10624 15.3807C0.964587 15.5224 0.964587 15.7521 1.10624 15.8938C1.17707 15.9646 1.26992 16 1.36277 16C1.45562 16 1.54847 15.9646 1.61929 15.8938L5.8389 11.6742L8.67769 14.5128C8.78796 14.6232 8.93652 14.6842 9.09054 14.6842C9.10681 14.6842 9.12308 14.6835 9.13949 14.6822C9.31108 14.6681 9.46684 14.5797 9.56804 14.4385C9.62879 14.353 9.94177 13.8896 10.1413 13.1665C10.3886 12.2704 10.3543 11.3408 10.0434 10.4641L13.5912 6.43725C14.2712 6.56421 14.9832 6.50634 15.6188 6.26983C15.8065 6.20001 15.9439 6.04152 15.9863 5.84647C16.0291 5.65112 15.9699 5.44977 15.8282 5.3083ZM5.5685 10.3788L3.12327 7.93357C3.54792 7.68367 4.86871 7.05155 6.47297 7.70958L6.85042 7.6461L11.2016 3.81273L11.3139 3.45343C11.1826 2.92323 11.1927 2.36083 11.3399 1.84649L15.1534 5.65995C14.6392 5.8075 14.0768 5.81758 13.5466 5.68615L13.187 5.79843L9.35359 10.1496L9.2901 10.527C9.94626 12.1266 9.31486 13.4512 9.06611 13.8764L6.43577 11.2461"/>
    </mask>
    <path
        d="M15.8282 5.3083L11.6915 1.17164C11.5499 1.02999 11.3485 0.97097 11.1536 1.01358C10.9579 1.05604 10.7994 1.19352 10.7295 1.38167C10.4934 2.01737 10.4358 2.72906 10.5623 3.40898L6.53547 6.95674C4.35281 6.18067 2.63427 7.3801 2.55982 7.43339C2.41975 7.53358 2.33151 7.68948 2.3174 7.86036C2.30287 8.03224 2.36462 8.20081 2.4867 8.32274L5.32548 11.1615L1.10624 15.3807C0.964587 15.5224 0.964587 15.7521 1.10624 15.8938C1.17707 15.9646 1.26992 16 1.36277 16C1.45562 16 1.54847 15.9646 1.61929 15.8938L5.8389 11.6742L8.67769 14.5128C8.78796 14.6232 8.93652 14.6842 9.09054 14.6842C9.10681 14.6842 9.12308 14.6835 9.13949 14.6822C9.31108 14.6681 9.46684 14.5797 9.56804 14.4385C9.62879 14.353 9.94177 13.8896 10.1413 13.1665C10.3886 12.2704 10.3543 11.3408 10.0434 10.4641L13.5912 6.43725C14.2712 6.56421 14.9832 6.50634 15.6188 6.26983C15.8065 6.20001 15.9439 6.04152 15.9863 5.84647C16.0291 5.65112 15.9699 5.44977 15.8282 5.3083ZM5.5685 10.3788L3.12327 7.93357C3.54792 7.68367 4.86871 7.05155 6.47297 7.70958L6.85042 7.6461L11.2016 3.81273L11.3139 3.45343C11.1826 2.92323 11.1927 2.36083 11.3399 1.84649L15.1534 5.65995C14.6392 5.8075 14.0768 5.81758 13.5466 5.68615L13.187 5.79843L9.35359 10.1496L9.2901 10.527C9.94626 12.1266 9.31486 13.4512 9.06611 13.8764L6.43577 11.2461"
        fill="black" fill-opacity="0.3"/>
    <path
        d="M15.8282 5.3083L15.6161 5.52043L15.6162 5.52056L15.8282 5.3083ZM11.6915 1.17164L11.4794 1.38377L11.6915 1.17164ZM11.1536 1.01358L11.2172 1.30675L11.2176 1.30666L11.1536 1.01358ZM10.7295 1.38167L10.4483 1.2771L10.4482 1.27723L10.7295 1.38167ZM10.5623 3.40898L10.7607 3.63408L10.8884 3.52151L10.8573 3.35409L10.5623 3.40898ZM6.53547 6.95674L6.43496 7.23941L6.60131 7.29855L6.73379 7.18184L6.53547 6.95674ZM2.55982 7.43339L2.73436 7.67739L2.73445 7.67733L2.55982 7.43339ZM2.3174 7.86036L2.61634 7.88564L2.61639 7.88504L2.3174 7.86036ZM2.4867 8.32274L2.69883 8.11061L2.6987 8.11048L2.4867 8.32274ZM5.32548 11.1615L5.53761 11.3736L5.74975 11.1615L5.53761 10.9494L5.32548 11.1615ZM1.10624 15.3807L0.894109 15.1686H0.894109L1.10624 15.3807ZM1.10624 15.8938L0.894103 16.1059L0.894109 16.1059L1.10624 15.8938ZM1.61929 15.8938L1.40716 15.6816L1.40716 15.6816L1.61929 15.8938ZM5.8389 11.6742L6.05103 11.462L5.8389 11.2499L5.62677 11.4621L5.8389 11.6742ZM8.67769 14.5128L8.88995 14.3008L8.88981 14.3007L8.67769 14.5128ZM9.13949 14.6822L9.1631 14.9813L9.16407 14.9812L9.13949 14.6822ZM9.56804 14.4385L9.8119 14.6133L9.81261 14.6123L9.56804 14.4385ZM10.1413 13.1665L9.8521 13.0867L9.85209 13.0867L10.1413 13.1665ZM10.0434 10.4641L9.8183 10.2658L9.70169 10.3981L9.76066 10.5644L10.0434 10.4641ZM13.5912 6.43725L13.6462 6.14234L13.4787 6.11107L13.3661 6.23893L13.5912 6.43725ZM15.6188 6.26983L15.5142 5.98865L15.5142 5.98866L15.6188 6.26983ZM15.9863 5.84647L15.6933 5.78233L15.6932 5.78264L15.9863 5.84647ZM3.12327 7.93357L2.97111 7.67502L2.63705 7.87162L2.91114 8.14571L3.12327 7.93357ZM6.47297 7.70958L6.35913 7.98714L6.43832 8.01963L6.52273 8.00543L6.47297 7.70958ZM6.85042 7.6461L6.90018 7.94194L6.98454 7.92775L7.04873 7.8712L6.85042 7.6461ZM11.2016 3.81273L11.3999 4.03784L11.4629 3.98234L11.4879 3.90222L11.2016 3.81273ZM11.3139 3.45343L11.6002 3.54291L11.6253 3.46279L11.6051 3.38132L11.3139 3.45343ZM11.3399 1.84649L11.5521 1.63435L11.1918 1.27407L11.0515 1.76391L11.3399 1.84649ZM15.1534 5.65995L15.2362 5.94831L15.7256 5.80787L15.3656 5.44782L15.1534 5.65995ZM13.5466 5.68615L13.6188 5.39496L13.5373 5.37477L13.4572 5.39979L13.5466 5.68615ZM13.187 5.79843L13.0976 5.51207L13.0174 5.5371L12.9619 5.60012L13.187 5.79843ZM9.35359 10.1496L9.12849 9.95125L9.07194 10.0154L9.05775 10.0998L9.35359 10.1496ZM9.2901 10.527L8.99426 10.4772L8.98006 10.5617L9.01255 10.6409L9.2901 10.527ZM9.06611 13.8764L8.85398 14.0885L9.12881 14.3634L9.32506 14.0279L9.06611 13.8764ZM16.0404 5.09617L11.9037 0.959508L11.4794 1.38377L15.6161 5.52043L16.0404 5.09617ZM11.9037 0.959508C11.6899 0.745746 11.3845 0.656019 11.0895 0.720498L11.2176 1.30666C11.3125 1.28592 11.4099 1.31423 11.4794 1.38377L11.9037 0.959508ZM11.0899 0.720405C10.7942 0.784605 10.5538 0.993323 10.4483 1.2771L11.0107 1.48624C11.0451 1.39372 11.1217 1.32748 11.2172 1.30675L11.0899 0.720405ZM10.4482 1.27723C10.1927 1.96534 10.1312 2.73219 10.2674 3.46387L10.8573 3.35409C10.7404 2.72592 10.7941 2.0694 11.0107 1.48611L10.4482 1.27723ZM10.364 3.18388L6.33715 6.73164L6.73379 7.18184L10.7607 3.63408L10.364 3.18388ZM6.63597 6.67408C4.30746 5.84615 2.47843 7.12271 2.3852 7.18945L2.73445 7.67733C2.79011 7.63748 4.39816 6.51519 6.43496 7.23941L6.63597 6.67408ZM2.38529 7.18939C2.1735 7.34088 2.03978 7.577 2.01842 7.83567L2.61639 7.88504C2.62325 7.80196 2.66601 7.72628 2.73436 7.67739L2.38529 7.18939ZM2.01847 7.83507C1.99647 8.09517 2.09011 8.35064 2.27469 8.535L2.6987 8.11048C2.63913 8.05098 2.60926 7.9693 2.61634 7.88564L2.01847 7.83507ZM2.27457 8.53487L5.11335 11.3736L5.53761 10.9494L2.69883 8.11061L2.27457 8.53487ZM5.11335 10.9494L0.894109 15.1686L1.31837 15.5928L5.53761 11.3736L5.11335 10.9494ZM0.894109 15.1686C0.635294 15.4274 0.635302 15.8471 0.894103 16.1059L1.31838 15.6816C1.29387 15.6571 1.29388 15.6173 1.31837 15.5928L0.894109 15.1686ZM0.894109 16.1059C1.02348 16.2353 1.19364 16.3 1.36277 16.3V15.7C1.3462 15.7 1.33066 15.6939 1.31837 15.6816L0.894109 16.1059ZM1.36277 16.3C1.5319 16.3 1.70206 16.2353 1.83143 16.1059L1.40716 15.6816C1.39488 15.6939 1.37934 15.7 1.36277 15.7V16.3ZM1.83142 16.1059L6.05103 11.8863L5.62677 11.4621L1.40716 15.6816L1.83142 16.1059ZM5.62678 11.8863L8.46556 14.7249L8.88981 14.3007L6.05103 11.462L5.62678 11.8863ZM8.46542 14.7248C8.63209 14.8917 8.85707 14.9842 9.09054 14.9842V14.3842C9.01596 14.3842 8.94382 14.3547 8.88995 14.3008L8.46542 14.7248ZM9.09054 14.9842C9.11566 14.9842 9.13987 14.9831 9.1631 14.9813L9.11588 14.3832C9.10629 14.3839 9.09796 14.3842 9.09054 14.3842V14.9842ZM9.16407 14.9812C9.42402 14.9599 9.65972 14.8256 9.81189 14.6133L9.3242 14.2638C9.27396 14.3339 9.19814 14.3764 9.11491 14.3832L9.16407 14.9812ZM9.81261 14.6123C9.88629 14.5085 10.2188 14.0134 10.4305 13.2463L9.85209 13.0867C9.66471 13.7658 9.37129 14.1975 9.32348 14.2648L9.81261 14.6123ZM10.4305 13.2463C10.6942 12.2907 10.6576 11.2982 10.3261 10.3638L9.76066 10.5644C10.0511 11.3833 10.083 12.2501 9.8521 13.0867L10.4305 13.2463ZM10.2685 10.6624L13.8163 6.63557L13.3661 6.23893L9.8183 10.2658L10.2685 10.6624ZM13.5361 6.73215C14.2681 6.86881 15.0354 6.80703 15.7234 6.55099L15.5142 5.98866C14.931 6.20566 14.2744 6.25961 13.6462 6.14234L13.5361 6.73215ZM15.7234 6.55101C16.0068 6.44559 16.2152 6.20522 16.2795 5.9103L15.6932 5.78264C15.6725 5.87781 15.6062 5.95443 15.5142 5.98865L15.7234 6.55101ZM16.2794 5.91061C16.3441 5.61511 16.2541 5.30963 16.0402 5.09604L15.6162 5.52056C15.6857 5.58991 15.7141 5.68714 15.6933 5.78233L16.2794 5.91061ZM5.78064 10.1667L3.3354 7.72144L2.91114 8.14571L5.35637 10.5909L5.78064 10.1667ZM3.27542 8.19213C3.66617 7.96218 4.88193 7.38123 6.35913 7.98714L6.58682 7.43202C4.85549 6.72187 3.42967 7.40517 2.97111 7.67502L3.27542 8.19213ZM6.52273 8.00543L6.90018 7.94194L6.80066 7.35025L6.42321 7.41374L6.52273 8.00543ZM7.04873 7.8712L11.3999 4.03784L11.0033 3.58763L6.6521 7.421L7.04873 7.8712ZM11.4879 3.90222L11.6002 3.54291L11.0275 3.36394L10.9152 3.72325L11.4879 3.90222ZM11.6051 3.38132C11.4863 2.90148 11.4957 2.39242 11.6283 1.92906L11.0515 1.76391C10.8897 2.32924 10.8789 2.94499 11.0227 3.52553L11.6051 3.38132ZM11.1278 2.05862L14.9413 5.87208L15.3656 5.44782L11.5521 1.63435L11.1278 2.05862ZM15.0707 5.37159C14.6076 5.50448 14.0986 5.5139 13.6188 5.39496L13.4744 5.97734C14.055 6.12126 14.6709 6.11053 15.2362 5.94831L15.0707 5.37159ZM13.4572 5.39979L13.0976 5.51207L13.2764 6.0848L13.636 5.97251L13.4572 5.39979ZM12.9619 5.60012L9.12849 9.95125L9.57869 10.3479L13.4121 5.99675L12.9619 5.60012ZM9.05775 10.0998L8.99426 10.4772L9.58595 10.5768L9.64944 10.1993L9.05775 10.0998ZM9.01255 10.6409C9.61657 12.1134 9.03646 13.3329 8.80716 13.7249L9.32506 14.0279C9.59326 13.5694 10.276 12.1399 9.56766 10.4132L9.01255 10.6409ZM9.27824 13.6643L6.6479 11.0339L6.22363 11.4582L8.85398 14.0885L9.27824 13.6643Z"
        fill="black" fill-opacity="0.3" mask="url(#path-1-outside-1_542_41530)"/>
</svg>
