<svg width="30" height="30" viewBox="0 0 30 30" fill="none" xmlns="http://www.w3.org/2000/svg">
    <rect width="30" height="30" rx="15" fill="#EBEBEB"/>
    <path fill-rule="evenodd" clip-rule="evenodd"
          d="M15 15C17.2091 15 19 13.2091 19 11C19 8.79086 17.2091 7 15 7C12.7909 7 11 8.79086 11 11C11 13.2091 12.7909 15 15 15ZM21.9287 22.0034C22.0073 22.55 21.5523 23 21 23H15H9C8.44772 23 7.99268 22.55 8.07131 22.0034C8.15423 21.4269 8.30897 20.8617 8.53285 20.3212C8.88463 19.4719 9.40025 18.7003 10.0503 18.0503C10.7003 17.4002 11.4719 16.8846 12.3212 16.5328C13.1705 16.1811 14.0807 16 15 16C15.9193 16 16.8295 16.1811 17.6788 16.5328C18.5281 16.8846 19.2997 17.4002 19.9497 18.0503C20.5998 18.7003 21.1154 19.4719 21.4672 20.3212C21.691 20.8617 21.8458 21.4269 21.9287 22.0034Z"
          fill="#2C3E50" fill-opacity="0.39"/>
</svg>
