<svg width="25" height="24" viewBox="0 0 25 24" fill="none" xmlns="http://www.w3.org/2000/svg">
    <path
        d="M16.6417 11.8623C16.6417 11.8651 16.6422 11.8665 16.6422 11.8678C16.6422 14.349 14.631 16.3798 12.1316 16.3798C9.63224 16.3798 7.62079 14.349 7.62079 11.8678C7.62079 11.8665 7.62135 11.8651 7.62135 11.8623H0V12.899C0 13.7549 0.621525 14.463 1.43583 14.549L2.44325 14.6776C2.65761 15.3841 2.93615 16.0908 3.30069 16.7345L2.70046 17.5067C2.1431 18.1708 2.18598 19.1143 2.78621 19.714L4.28654 21.193C4.88677 21.7927 5.82972 21.8572 6.47282 21.3217L7.26583 20.678C7.93023 21.0642 8.61618 21.3435 9.32351 21.5571L9.43056 22.5005C9.51658 23.3796 10.2238 24 11.0811 24H13.1603C14.0175 24 14.7251 23.3796 14.7892 22.565L14.9394 21.5571C15.6467 21.3435 16.3542 21.0423 16.9755 20.678L17.7685 21.3217C18.4329 21.8572 19.3761 21.7927 19.9764 21.2149L21.4554 19.7141C22.0556 19.1144 22.1198 18.1709 21.584 17.5272L20.9409 16.7345C21.3268 16.0704 21.6053 15.3844 21.82 14.6777L22.7629 14.549C23.6203 14.4627 24.2634 13.7549 24.2634 12.8991V11.8623L16.6417 11.8623Z"
        fill="#78C2C9"/>
    <path
        d="M7.62181 12.1377C7.62181 12.1349 7.62125 12.1335 7.62125 12.1322C7.62125 9.65103 9.63242 7.62018 12.1318 7.62018C14.6312 7.62018 16.6427 9.65103 16.6427 12.1322C16.6427 12.1335 16.6421 12.1349 16.6421 12.1377H24.2635V11.101C24.2635 10.2451 23.6419 9.53703 22.8276 9.451L21.8202 9.32238C21.6058 8.61593 21.3273 7.90921 20.9628 7.26554L21.563 6.49328C22.1204 5.82916 22.0775 4.88567 21.4773 4.28597L19.9769 2.80695C19.3767 2.20727 18.4337 2.14283 17.7906 2.67833L16.9976 3.32199C16.3332 2.93585 15.6473 2.65648 14.9399 2.44294L14.8329 1.49946C14.7469 0.62042 14.0396 -2.28882e-05 13.1824 -2.28882e-05H11.1032C10.246 -2.28882e-05 9.53839 0.620398 9.47424 1.43502L9.32404 2.44294C8.61676 2.65648 7.90925 2.9577 7.28795 3.32199L6.49495 2.67833C5.83054 2.14283 4.88733 2.20728 4.28707 2.7851L2.80805 4.28593C2.20782 4.88561 2.14365 5.82911 2.67943 6.47278L3.32253 7.2655C2.93667 7.92963 2.65813 8.61558 2.44349 9.32234L1.50057 9.45096C0.643129 9.53726 2.86102e-05 10.2451 2.86102e-05 11.1009V12.1377L7.62181 12.1377Z"
        fill="#78C2C9"/>
</svg>
