<svg width="15" height="16" viewBox="0 0 15 16" fill="none" xmlns="http://www.w3.org/2000/svg">
    <g id="Interface / Settings_Future">
        <g id="Vector">
            <path
                d="M8.50037 13.6725L11.913 11.7022C12.2773 11.4919 12.4591 11.3867 12.5916 11.2396C12.7088 11.1094 12.7974 10.9561 12.8516 10.7895C12.9126 10.6016 12.9126 10.3917 12.9126 9.97303V6.02667C12.9126 5.60798 12.9126 5.39809 12.8516 5.21024C12.7974 5.04364 12.7088 4.89018 12.5916 4.76C12.4597 4.61351 12.2783 4.50878 11.9171 4.30027L8.49976 2.32724C8.13545 2.11691 7.95366 2.01196 7.76001 1.9708C7.58866 1.93438 7.41152 1.93438 7.24017 1.9708C7.04652 2.01196 6.86412 2.11691 6.49982 2.32724L3.08652 4.29791C2.72264 4.508 2.54084 4.61296 2.40845 4.76C2.29123 4.89018 2.20271 5.04364 2.14858 5.21024C2.0874 5.39853 2.0874 5.60897 2.0874 6.02963V9.97023C2.0874 10.3909 2.0874 10.6012 2.14858 10.7895C2.20271 10.9561 2.29123 11.1094 2.40845 11.2396C2.54092 11.3867 2.72285 11.4919 3.08716 11.7022L6.49982 13.6725C6.86411 13.8829 7.04652 13.9879 7.24017 14.029C7.41152 14.0655 7.58866 14.0655 7.76001 14.029C7.95366 13.9879 8.13607 13.8829 8.50037 13.6725Z"
                stroke="black" stroke-opacity="0.3" stroke-width="1.5" stroke-linecap="round" stroke-linejoin="round"/>
            <path
                d="M5.625 7.99985C5.625 9.03538 6.46447 9.87485 7.5 9.87485C8.53553 9.87485 9.375 9.03538 9.375 7.99985C9.375 6.96432 8.53553 6.12485 7.5 6.12485C6.46447 6.12485 5.625 6.96432 5.625 7.99985Z"
                stroke="black" stroke-opacity="0.3" stroke-width="1.5" stroke-linecap="round" stroke-linejoin="round"/>
        </g>
    </g>
</svg>
