<svg width="36" height="24" viewBox="0 0 36 24" fill="none" xmlns="http://www.w3.org/2000/svg">
    <path
        d="M34.4072 5.58631H34.4033L17.8081 0.0479704C17.6169 -0.0159901 17.4115 -0.0159901 17.225 0.0479704L0.629816 5.58631C0.255524 5.71123 0 6.06322 0 6.46158C0 6.85865 0.255524 7.21065 0.629816 7.33685L5.53155 8.97149V13.8462C5.53155 14.0913 5.62887 14.327 5.80122 14.4995C5.96329 14.6609 9.84554 18.4617 17.5167 18.4617C20.3078 18.4617 22.9076 17.9595 25.2523 16.9674C25.7205 16.7716 25.94 16.2282 25.7423 15.7568C25.5443 15.2881 25.0041 15.0708 24.5359 15.2662C22.4222 16.1629 20.0595 16.6145 17.5205 16.6145C13.9336 16.6145 11.2935 15.683 9.71271 14.9044C8.54226 14.327 7.75685 13.7433 7.37906 13.4299V9.58838L17.2284 12.877C17.3219 12.9071 17.4196 12.9251 17.5204 12.9251C17.6177 12.9251 17.7146 12.9071 17.8124 12.877L27.6617 9.58838V11.235C26.5886 11.6158 25.8177 12.6413 25.8177 13.8454C25.8177 14.9726 26.4951 15.9441 27.4602 16.3754L25.843 22.8526C25.7749 23.1264 25.8357 23.4214 26.012 23.6446C26.1886 23.8682 26.4549 24 26.7391 24H30.4271C30.708 24 30.9781 23.8691 31.1513 23.6454C31.3275 23.4222 31.3892 23.1273 31.3202 22.8534L29.7031 16.3763C30.6716 15.9449 31.349 14.9738 31.349 13.8462C31.349 12.6417 30.5781 11.6166 29.5049 11.2359V8.97109L34.4067 7.33644C34.781 7.21024 35.0365 6.85824 35.0365 6.46117C35.0369 6.06324 34.7819 5.71123 34.4072 5.58631Z"
        fill="#78C2C9"/>
</svg>
