<svg width="15" height="16" viewBox="0 0 15 16" fill="none" xmlns="http://www.w3.org/2000/svg">
    <path
        d="M3.75 11.75C3.78978 11.75 3.83079 11.75 3.87307 11.75H7.5M3.75 11.75C3.13233 11.7495 2.80834 11.7418 2.55737 11.6139C2.32217 11.494 2.13108 11.3023 2.01124 11.0671C1.875 10.7997 1.875 10.4502 1.875 9.75012V6.25012C1.875 5.55006 1.875 5.19976 2.01124 4.93237C2.13108 4.69717 2.32217 4.50608 2.55737 4.38624C2.82476 4.25 3.17506 4.25 3.87512 4.25H11.1251C11.8252 4.25 12.1747 4.25 12.4421 4.38624C12.6773 4.50608 12.8691 4.69717 12.9889 4.93237C13.125 5.1995 13.125 5.54937 13.125 6.24807V9.75193C13.125 10.4506 13.125 10.8 12.9889 11.0671C12.8691 11.3023 12.6773 11.494 12.4421 11.6139C12.175 11.75 11.8256 11.75 11.1269 11.75H7.5M3.75 11.75C3.75002 11.0596 4.58948 10.5 5.625 10.5C6.66053 10.5 7.5 11.0596 7.5 11.75M3.75 11.75C3.75 11.75 3.75 11.75 3.75 11.75ZM11.25 9.25H8.75M11.25 7.375H9.375M5.625 8.625C4.93464 8.625 4.375 8.06536 4.375 7.375C4.375 6.68464 4.93464 6.125 5.625 6.125C6.31536 6.125 6.875 6.68464 6.875 7.375C6.875 8.06536 6.31536 8.625 5.625 8.625Z"
        stroke="black" stroke-opacity="0.3" stroke-width="1.5" stroke-linecap="round" stroke-linejoin="round"/>
</svg>
