<svg width="20" height="14" viewBox="0 0 20 14" fill="none" xmlns="http://www.w3.org/2000/svg">
    <path
        d="M4 13C4.06366 13 4.12926 13 4.19691 13H10M4 13C3.01173 12.9992 2.49334 12.9868 2.0918 12.7822C1.71547 12.5905 1.40973 12.2837 1.21799 11.9074C1 11.4796 1 10.9203 1 9.8002V4.2002C1 3.08009 1 2.51962 1.21799 2.0918C1.40973 1.71547 1.71547 1.40973 2.0918 1.21799C2.51962 1 3.08009 1 4.2002 1H15.8002C16.9203 1 17.4796 1 17.9074 1.21799C18.2837 1.40973 18.5905 1.71547 18.7822 2.0918C19 2.5192 19 3.07899 19 4.19691V9.80309C19 10.921 19 11.48 18.7822 11.9074C18.5905 12.2837 18.2837 12.5905 17.9074 12.7822C17.48 13 16.921 13 15.8031 13H10M4 13C4.00004 11.8954 5.34317 11 7 11C8.65685 11 10 11.8954 10 13M4 13C4 13 4 12.9999 4 13ZM16 9H12M16 6H13M7 8C5.89543 8 5 7.10457 5 6C5 4.89543 5.89543 4 7 4C8.10457 4 9 4.89543 9 6C9 7.10457 8.10457 8 7 8Z"
        stroke="black" stroke-opacity="0.5" stroke-width="2" stroke-linecap="round" stroke-linejoin="round"/>
</svg>
