<svg width="47" height="47" viewBox="0 0 47 47" fill="none" xmlns="http://www.w3.org/2000/svg">
    <path fill-rule="evenodd" clip-rule="evenodd"
          d="M33.2526 26.5148C33.2526 26.5148 35.2739 28.6097 35.7739 29.5792C35.7836 29.5932 35.7912 29.6088 35.7964 29.6251C36.0001 29.9833 36.0501 30.264 35.9501 30.4714C35.7814 30.8138 35.2101 30.9856 35.0164 31H31.4439C31.1951 31 30.6776 30.9318 30.0476 30.4753C29.5664 30.1224 29.0876 29.5413 28.6239 28.9731C27.9314 28.1296 27.3326 27.3976 26.7264 27.3976C26.6498 27.3974 26.5738 27.4107 26.5014 27.437C26.0426 27.5891 25.4601 28.2753 25.4601 30.1026C25.4601 30.6746 25.0301 31 24.7289 31H23.0926C22.5351 31 19.6326 30.7954 17.0589 27.9473C13.9051 24.4603 11.0726 17.4654 11.0451 17.4038C10.8689 16.9511 11.2389 16.7045 11.6389 16.7045H15.2464C15.7301 16.7045 15.8876 17.0115 15.9976 17.287C16.1251 17.6031 16.5976 18.8677 17.3726 20.2885C18.6276 22.6 19.3989 23.5406 20.0151 23.5406C20.1309 23.541 20.2448 23.5094 20.3451 23.4489C21.1501 22.9844 21.0001 19.9671 20.9626 19.3453C20.9626 19.2246 20.9614 17.998 20.5489 17.405C20.2539 16.98 19.7514 16.8146 19.4476 16.7544C19.5289 16.631 19.7014 16.4421 19.9226 16.3306C20.4739 16.042 21.4701 16 22.4589 16H23.0076C24.0801 16.0158 24.3576 16.0879 24.7476 16.1915C25.5326 16.3884 25.5476 16.9223 25.4789 18.7405C25.4589 19.26 25.4376 19.8451 25.4376 20.5339C25.4376 20.6807 25.4314 20.8447 25.4314 21.0114C25.4076 21.9441 25.3764 22.9949 26.0039 23.4265C26.0852 23.4798 26.1793 23.5079 26.2751 23.5079C26.4926 23.5079 27.1439 23.5079 28.9101 20.3266C29.6851 18.9215 30.2851 17.2646 30.3264 17.14C30.3614 17.0705 30.4664 16.875 30.5939 16.7963C30.6846 16.7456 30.7861 16.7204 30.8889 16.7229H35.1326C35.5951 16.7229 35.9089 16.7963 35.9701 16.98C36.0726 17.2778 35.9501 18.1869 34.0126 20.9366C33.6864 21.3944 33.4001 21.7906 33.1489 22.137C31.3926 24.556 31.3926 24.6781 33.2526 26.5148Z"
          fill="#616161"/>
    <rect x="1" y="1" width="45" height="45" rx="22.5" stroke="#616161" stroke-width="2"/>
</svg>
