<svg width="230" height="99" viewBox="0 0 230 99" fill="none" xmlns="http://www.w3.org/2000/svg">
    <path d="M14.5312 82.144H0L14.5312 89.0779V82.144Z" fill="#262821"/>
    <path
        d="M0 82.1436V98.599L7.2656 94.4852L14.5312 98.599V82.1436H63.5491C67.9947 82.1436 71.5944 77.9966 71.5944 72.8874V15.675C71.5944 15.393 71.2626 15.2437 71.0635 15.4427L0 82.1436Z"
        fill="#06A1AE"/>
    <path
        d="M11.1804 62.105L45.5676 0.015625H11.0643C4.95985 0.015625 0 5.70535 0 12.7387V49.3155V82.1434V82.3093L0.0995247 82.1434H14.5312L11.1804 62.105Z"
        fill="#06A1AE"/>
    <path
        d="M71.5947 7.68031V14.4317C71.5947 14.863 71.4289 15.2611 71.1469 15.5265L5.95551 76.7201C4.8607 77.7486 3.36777 76.2225 4.13082 74.8456L45.203 0.663525C45.4353 0.248821 45.8168 0 46.2481 0H64.9097C68.6089 0.0165881 71.5947 3.45033 71.5947 7.68031Z"
        fill="#F6F6F6"/>
    <path d="M14.5312 82.144H0L14.5312 89.0779V82.144Z" fill="#008695"/>
    <path
        d="M116.263 18.5882C118.599 19.9684 119.767 22.0518 119.767 24.8386C119.767 27.3335 118.917 29.3108 117.219 30.7706C115.493 32.2569 113.224 33 110.411 33H98.6664V5.13194H109.654C112.468 5.13194 114.697 5.84855 116.343 7.28176C118.015 8.68844 118.851 10.6127 118.851 13.0544C118.851 15.39 117.988 17.2346 116.263 18.5882ZM109.455 11.5018H105.793V15.8811H109.455C110.119 15.8811 110.663 15.6953 111.088 15.3237C111.512 14.9256 111.725 14.3815 111.725 13.6914C111.725 13.0279 111.512 12.4971 111.088 12.099C110.663 11.7008 110.119 11.5018 109.455 11.5018ZM105.793 26.6302H110.212C110.928 26.6302 111.512 26.4178 111.963 25.9932C112.415 25.542 112.64 24.9713 112.64 24.2813C112.64 23.5647 112.415 22.994 111.963 22.5694C111.512 22.1447 110.928 21.9324 110.212 21.9324H105.793V26.6302ZM136.47 18.6679L145.706 33H137.744L129.742 20.539V33H122.616V5.13194H129.742V16.8365L137.346 5.13194H145.308L136.47 18.6679ZM147.731 5.13194H158.56C161.373 5.13194 163.735 6.04761 165.646 7.87894C167.557 9.71027 168.513 12.0459 168.513 14.8858C168.513 17.7257 167.557 20.0613 165.646 21.8926C163.735 23.7239 161.373 24.6396 158.56 24.6396H154.857V33H147.731V5.13194ZM154.857 17.8716H158.56C159.356 17.8716 160.02 17.5929 160.55 17.0356C161.108 16.4782 161.386 15.7616 161.386 14.8858C161.386 14.0099 161.108 13.3066 160.55 12.7758C160.02 12.2184 159.356 11.9397 158.56 11.9397H154.857V17.8716ZM112.123 78.5972C107.929 78.5972 104.452 77.217 101.692 74.4568C98.9584 71.6965 97.5915 68.2329 97.5915 64.066C97.5915 59.899 98.9584 56.4487 101.692 53.715C104.426 50.9282 107.903 49.5348 112.123 49.5348C114.644 49.5348 116.98 50.1319 119.13 51.3263C121.279 52.5206 122.965 54.1264 124.186 56.1435L118.015 59.6867C117.484 58.7047 116.688 57.935 115.626 57.3776C114.591 56.7937 113.423 56.5018 112.123 56.5018C109.92 56.5018 108.115 57.2051 106.708 58.6118C105.355 60.0185 104.678 61.8365 104.678 64.066C104.678 66.3485 105.355 68.1798 106.708 69.56C108.088 70.9401 109.893 71.6302 112.123 71.6302C113.423 71.6302 114.591 71.3515 115.626 70.7941C116.688 70.2102 117.484 69.414 118.015 68.4054L124.186 71.9885C122.965 74.0321 121.279 75.6511 119.13 76.8455C117.006 78.0133 114.671 78.5972 112.123 78.5972ZM148.076 50.1319H155.162V78H148.076V62.9911L141.308 74.1781H140.591L133.863 63.0309V78H126.737V50.1319H133.863L140.949 62.0356L148.076 50.1319ZM184.272 78H176.588L175.394 73.979H166.118L164.924 78H157.2L166.397 50.1319H175.076L184.272 78ZM170.736 58.3729L167.949 67.8481H173.563L170.736 58.3729ZM186.298 50.1319H197.127C199.94 50.1319 202.303 51.0476 204.214 52.8789C206.125 54.7103 207.08 57.0459 207.08 59.8858C207.08 62.7257 206.125 65.0613 204.214 66.8926C202.303 68.7239 199.94 69.6396 197.127 69.6396H193.425V78H186.298V50.1319ZM193.425 62.8716H197.127C197.923 62.8716 198.587 62.5929 199.118 62.0356C199.675 61.4782 199.954 60.7616 199.954 59.8858C199.954 59.0099 199.675 58.3066 199.118 57.7758C198.587 57.2184 197.923 56.9397 197.127 56.9397H193.425V62.8716ZM207.873 50.1319H228.774V57.0193H221.886V78H214.76V57.0193H207.873V50.1319Z"
        fill="#00A2B0"/>
</svg>
