<svg width="150" height="60" viewBox="0 0 150 60" fill="none" xmlns="http://www.w3.org/2000/svg">
    <path d="M9.12999 49.52H0.369995L9.12999 53.7V49.52Z" fill="#262821"/>
    <path
        d="M0.369995 49.5201V59.4401L4.74999 56.9601L9.12999 59.4401V49.5201H38.68C41.36 49.5201 43.53 47.0201 43.53 43.9401V9.45008C43.53 9.28008 43.33 9.19008 43.21 9.31008L0.369995 49.5201Z"
        fill="#06A1AE"/>
    <path
        d="M7.10999 37.44L27.84 0.0100098H7.03999C3.35999 0.0100098 0.369995 3.44001 0.369995 7.68001V29.73V49.52V49.62L0.429993 49.52H9.12999L7.10999 37.44Z"
        fill="#06A1AE"/>
    <path
        d="M43.53 4.63V8.7C43.53 8.96 43.43 9.2 43.26 9.36L3.96002 46.25C3.30002 46.87 2.40002 45.95 2.86002 45.12L27.62 0.4C27.76 0.15 27.99 0 28.25 0H39.5C41.73 0.01 43.53 2.08 43.53 4.63Z"
        fill="#F6F6F6"/>
    <path d="M9.12999 49.52H0.369995L9.12999 53.7V49.52Z" fill="#008695"/>
    <path
        d="M65.22 7.39996V4.20996H71.82C72.56 4.20996 73.34 4.22996 74.18 4.27996C75.02 4.32996 75.79 4.47996 76.5 4.74996C77.21 5.01996 77.79 5.41996 78.25 5.96996C78.71 6.51996 78.95 7.29996 78.95 8.30996V9.76996C78.95 10.31 78.81 10.78 78.54 11.16C78.27 11.54 77.91 11.88 77.46 12.17C78.13 12.52 78.66 12.99 79.06 13.56C79.45 14.14 79.65 14.86 79.65 15.72V17.45C79.65 18.3 79.41 18.97 78.92 19.47C78.43 19.97 77.82 20.35 77.1 20.61C76.37 20.87 75.59 21.05 74.75 21.13C73.91 21.21 73.14 21.25 72.43 21.25H66.31V7.39996H65.22ZM74.41 9.12996C74.41 8.38996 74.25 7.91996 73.93 7.69996C73.61 7.47996 73.11 7.37996 72.44 7.37996H70.9V10.84H72.22C72.48 10.84 72.73 10.82 72.99 10.79C73.25 10.76 73.48 10.68 73.69 10.56C73.9 10.44 74.07 10.27 74.21 10.04C74.35 9.81996 74.41 9.50996 74.41 9.12996ZM75.06 16.04C75.06 15.85 75.03 15.62 74.98 15.36C74.92 15.1 74.81 14.85 74.64 14.62C74.47 14.39 74.23 14.19 73.91 14.03C73.59 13.87 73.17 13.79 72.64 13.79H70.91V18.06H72.54C72.8 18.06 73.07 18.05 73.37 18.02C73.67 18 73.94 17.92 74.2 17.79C74.46 17.66 74.66 17.46 74.82 17.19C74.98 16.92 75.06 16.54 75.06 16.04Z"
        fill="#2C3E50"/>
    <path
        d="M97.19 4.20996V7.39996H97.09C96.9 7.42996 96.65 7.49996 96.33 7.58996C96.02 7.68996 95.69 7.88996 95.36 8.18996L95.17 8.40996L90.78 12.66L95.6 17C96.22 17.56 96.71 17.95 97.06 18.16C97.41 18.37 97.68 18.5 97.88 18.53L96.68 21.17L96.37 21.31C96.1 21.39 95.82 21.43 95.53 21.43C95.11 21.45 94.63 21.35 94.09 21.13C93.55 20.91 92.92 20.48 92.22 19.82L87.73 15.6L87.32 16.01V21.24H82.71V7.39996H81.63V4.20996H87.29V10.09L93.31 4.20996H97.19Z"
        fill="#2C3E50"/>
    <path
        d="M99.09 7.39996V4.20996H106.22C106.96 4.20996 107.74 4.25996 108.58 4.34996C109.42 4.44996 110.19 4.65996 110.9 4.98996C111.61 5.31996 112.19 5.77996 112.65 6.37996C113.11 6.97996 113.35 7.77996 113.35 8.78996V10.25C113.35 11.15 113.13 11.88 112.68 12.45C112.23 13.02 111.67 13.46 110.99 13.78C110.31 14.1 109.57 14.32 108.77 14.43C107.97 14.54 107.22 14.6 106.51 14.6H104.78V21.25H100.17V7.39996H99.09ZM108.81 9.58996C108.81 8.84996 108.61 8.30996 108.21 7.94996C107.81 7.58996 107.27 7.40996 106.6 7.40996H104.78V11.68H106.53C106.79 11.68 107.05 11.64 107.32 11.57C107.59 11.5 107.84 11.38 108.05 11.21C108.26 11.04 108.45 10.83 108.59 10.56C108.73 10.29 108.81 9.96996 108.81 9.58996Z"
        fill="#2C3E50"/>
    <path
        d="M75.23 33.11L75.11 32.2C74.93 31.96 74.67 31.74 74.33 31.54C73.99 31.34 73.47 31.24 72.78 31.24C72.27 31.24 71.85 31.3399 71.52 31.5299C71.19 31.7199 70.94 32.0099 70.75 32.3899C70.57 32.7699 70.44 33.26 70.37 33.84C70.3 34.42 70.26 35.11 70.26 35.8899V37.7099C70.26 38.5599 70.3 39.2699 70.38 39.8499C70.46 40.4299 70.6 40.89 70.81 41.24C71.02 41.59 71.3 41.84 71.65 42C72 42.15 72.46 42.23 73.02 42.23C73.56 42.23 74.02 42.2099 74.4 42.1699C74.78 42.1299 75.12 42.07 75.44 42C75.76 41.93 76.07 41.8399 76.36 41.7399C76.66 41.6399 77 41.5199 77.38 41.3899L78.48 44.05C77.62 44.45 76.74 44.79 75.84 45.08C74.94 45.37 73.99 45.51 72.98 45.51C72.02 45.51 71.08 45.44 70.17 45.29C69.26 45.15 68.45 44.83 67.73 44.33C67.01 43.83 66.45 43.12 66.03 42.19C65.61 41.26 65.39 40.01 65.39 38.42V34.5299C65.39 33.5399 65.5 32.69 65.71 31.97C65.92 31.25 66.22 30.66 66.59 30.17C66.96 29.68 67.38 29.29 67.86 28.99C68.34 28.69 68.85 28.47 69.38 28.32C69.92 28.17 70.45 28.07 70.99 28.02C71.53 27.97 72.04 27.95 72.54 27.95C73.6 27.95 74.62 28.02 75.62 28.15C76.62 28.29 77.47 28.4699 78.18 28.6899L77.87 33.08H75.23V33.11Z"
        fill="#2C3E50"/>
    <path
        d="M81.25 45.2499V31.3799H80.1899V28.1899H87.17L90.2699 38.7299L93.7 28.1899H100.52V31.3799H99.4599V45.2499H95.1199V36.3499L92.2599 43.8099H88.3499L85.59 36.3199V45.2499H81.25Z"
        fill="#2C3E50"/>
    <path
        d="M101.68 45.25V42.06H102.78L107.24 28.21H112.26L116.58 42.06H117.68V45.25H113.05L111.97 42.06H107.34L106.29 45.25H101.68ZM108.35 38.75H111.09L109.82 34.05L108.35 38.75Z"
        fill="#2C3E50"/>
    <path
        d="M119.08 31.4V28.21H126.21C126.95 28.21 127.73 28.26 128.57 28.35C129.41 28.45 130.18 28.66 130.89 28.99C131.6 29.32 132.18 29.78 132.64 30.38C133.1 30.98 133.34 31.78 133.34 32.79V34.25C133.34 35.15 133.12 35.88 132.67 36.45C132.22 37.02 131.66 37.46 130.98 37.78C130.3 38.1 129.56 38.32 128.76 38.43C127.96 38.54 127.21 38.6 126.5 38.6H124.77V45.25H120.16V31.4H119.08ZM128.8 33.59C128.8 32.85 128.6 32.31 128.2 31.95C127.8 31.59 127.26 31.41 126.59 31.41H124.77V35.68H126.52C126.78 35.68 127.04 35.64 127.31 35.57C127.58 35.5 127.83 35.38 128.04 35.21C128.25 35.04 128.44 34.83 128.58 34.56C128.72 34.29 128.8 33.97 128.8 33.59Z"
        fill="#2C3E50"/>
    <path
        d="M137.39 32.43H134.68V28.21H149.63V32.43H146.92V32C146.92 31.82 146.89 31.69 146.84 31.6C146.78 31.51 146.7 31.44 146.59 31.4H144.33V42.06H145.39V45.25H138.91V42.06H139.99V31.4H137.71C137.5 31.46 137.4 31.66 137.4 32V32.43H137.39Z"
        fill="#2C3E50"/>
</svg>
