<svg width="47" height="47" viewBox="0 0 47 47" fill="none" xmlns="http://www.w3.org/2000/svg">
    <path
        d="M33.115 19.2366C33.115 19.2366 32.9067 17.7662 32.2652 17.1205C31.4529 16.2708 30.5449 16.2666 30.1283 16.2166C27.1458 16 22.6679 16 22.6679 16H22.6595C22.6595 16 18.1816 16 15.1991 16.2166C14.7826 16.2666 13.8745 16.2708 13.0622 17.1205C12.4207 17.7662 12.2166 19.2366 12.2166 19.2366C12.2166 19.2366 12 20.9653 12 22.6898V24.306C12 26.0305 12.2124 27.7592 12.2124 27.7592C12.2124 27.7592 12.4207 29.2297 13.058 29.8753C13.8703 30.7251 14.9367 30.6959 15.4116 30.7876C17.1194 30.95 22.6637 31 22.6637 31C22.6637 31 27.1458 30.9917 30.1283 30.7792C30.5449 30.7292 31.4529 30.7251 32.2652 29.8753C32.9067 29.2297 33.115 27.7592 33.115 27.7592C33.115 27.7592 33.3274 26.0347 33.3274 24.306V22.6898C33.3274 20.9653 33.115 19.2366 33.115 19.2366ZM20.4602 26.268V20.2738L26.221 23.2813L20.4602 26.268Z"
        fill="#616161"/>
    <rect x="1" y="1" width="45" height="45" rx="22.5" stroke="#616161" stroke-width="2"/>
</svg>
